<svg id="Layer_1" data-name="Layer 1" xmlns="http://www.w3.org/2000/svg" xmlns:xlink="http://www.w3.org/1999/xlink" viewBox="0 0 568.1 825.18"><defs><style>.cls-1,.cls-37,.cls-38{fill:none;}.cls-2{fill:#f4bd83;}.cls-3{clip-path:url(#clip-path);}.cls-4{fill:#fcecb3;}.cls-5{opacity:0.2;}.cls-6{fill:#231f20;}.cls-7{fill:#a87a31;}.cls-8{clip-path:url(#clip-path-2);}.cls-9{fill:#daaa50;}.cls-10{clip-path:url(#clip-path-3);}.cls-11{clip-path:url(#clip-path-4);}.cls-12{clip-path:url(#clip-path-5);}.cls-13{clip-path:url(#clip-path-6);}.cls-14{clip-path:url(#clip-path-7);}.cls-15{clip-path:url(#clip-path-8);}.cls-16{clip-path:url(#clip-path-9);}.cls-17{clip-path:url(#clip-path-10);}.cls-18{clip-path:url(#clip-path-11);}.cls-19{clip-path:url(#clip-path-12);}.cls-20{clip-path:url(#clip-path-13);}.cls-21{clip-path:url(#clip-path-14);}.cls-22{clip-path:url(#clip-path-15);}.cls-23{clip-path:url(#clip-path-16);}.cls-24{clip-path:url(#clip-path-17);}.cls-25{clip-path:url(#clip-path-18);}.cls-26{clip-path:url(#clip-path-19);}.cls-27{clip-path:url(#clip-path-20);}.cls-28{clip-path:url(#clip-path-21);}.cls-29{clip-path:url(#clip-path-22);}.cls-30{fill:#dbdbdb;}.cls-31{clip-path:url(#clip-path-23);}.cls-32{fill:#c9c9c9;stroke:#d82e2e;stroke-width:82.1px;}.cls-32,.cls-38{stroke-miterlimit:10;}.cls-33{opacity:0.25;isolation:isolate;}.cls-34{fill:#b2b2b2;}.cls-35{clip-path:url(#clip-path-24);}.cls-36{fill:#d6d6d6;}.cls-37{stroke:#fff;stroke-linejoin:round;stroke-width:6.16px;}.cls-37,.cls-38{stroke-linecap:round;}.cls-38{stroke:#fc7575;stroke-width:16.42px;}.cls-39{fill:#d82e2e;}</style><clipPath id="clip-path"><path class="cls-1" d="M305.75,57.87a22,22,0,0,1-35.3,17.55A27.3,27.3,0,0,1,221.6,51a28.07,28.07,0,0,1,2.29-3.79,28.74,28.74,0,1,1,49.26-8.62,22,22,0,0,1,32.66,19.25Z"/></clipPath><clipPath id="clip-path-2"><path class="cls-1" d="M258.05,43.75c2.5,2.06,5.19,4.25,5.81,7.39,1,5-4.38,9.67-9.51,9.34s-9.4-4.1-12-8.6a53.63,53.63,0,0,1-3.49-7.59C230.48,23.27,250.39,37.64,258.05,43.75Z"/></clipPath><clipPath id="clip-path-3"><path class="cls-1" d="M380,109.69a22.26,22.26,0,0,0,21.71,20.18h.74a2.59,2.59,0,0,1,2.59,2.6h0a26.69,26.69,0,1,0,52.46-7.06,2.55,2.55,0,0,1,1.15-2.86,31,31,0,1,0-44.87-36.94,2.56,2.56,0,0,1-3.23,1.64l-.13,0A22.12,22.12,0,0,0,380,109.69Z"/></clipPath><clipPath id="clip-path-4"><path class="cls-1" d="M435.62,95c-3.24.94-6.86.1-10,1.31a9.68,9.68,0,0,0-5.66,9.44,14.39,14.39,0,0,0,5.52,10,27.58,27.58,0,0,0,10.59,4.9,19.87,19.87,0,0,0,10.57.41,8.92,8.92,0,0,0,6.65-7.53c.25-5.44-5.81-9.46-6.16-14.92-.12-2.71,7.41-11.52,2.41-13.08C446,84.37,439.48,93.86,435.62,95Z"/></clipPath><clipPath id="clip-path-5"><path class="cls-1" d="M222,102.29c1.23,12.52,13.45,22.42,27.84,22.58h.92a3.09,3.09,0,0,1,3.32,2.86.22.22,0,0,0,0,.08h0c0,17.3,16.95,31.07,36.94,29.64,17.55-1.26,31.33-14.37,31.35-29.77a27,27,0,0,0-1.17-7.78,2.68,2.68,0,0,1,1.47-3.18c12.11-6.16,20.16-17.75,19.77-31C341.9,68,325.64,53.13,305.34,52c-18.47-1-34.57,9-40.17,23.36a3.39,3.39,0,0,1-4.31,1.79A31.65,31.65,0,0,0,250,75.32C233.66,75.42,220.53,87.7,222,102.29Z"/></clipPath><clipPath id="clip-path-6"><path class="cls-1" d="M292.37,85.89c-4.11,1-8.79,0-12.83,1.46a10.76,10.76,0,0,0-7.27,10.57,15.48,15.48,0,0,0,7.06,11.19,37.83,37.83,0,0,0,13.57,5.5,28.89,28.89,0,0,0,13.55.47c4.37-1.15,8.21-4.45,8.5-8.43.32-6.16-7.45-10.62-7.78-16.71-.17-3,9.48-12.91,3.08-14.68C305.73,74,297.38,84.64,292.37,85.89Z"/></clipPath><clipPath id="clip-path-7"><path class="cls-1" d="M319.05,146.69a23.51,23.51,0,0,0,31.24-1.33l.54-.56a2.7,2.7,0,0,1,3.83,0l0,0h0a28,28,0,1,0,33.17-44.7,2.7,2.7,0,0,1-1.3-3,32.74,32.74,0,1,0-60.9,6.47,2.68,2.68,0,0,1-1.11,3.63l-.16.08a22.74,22.74,0,0,0-7.41,5,23.31,23.31,0,0,0,.49,33C318,145.79,318.51,146.25,319.05,146.69Z"/></clipPath><clipPath id="clip-path-8"><path class="cls-1" d="M344.28,99.17c-1.13,4.54-4.11,8.77-4.91,13.28-1,5.28,1.4,9.86,5.05,11.29s8.21.13,12.32-2.69a47.68,47.68,0,0,0,10.92-11.31,38.53,38.53,0,0,0,6.81-13.28c1.15-4.78.35-9.93-2.75-11.68-4.76-2.66-12.09,3.29-17.16,1.28-2.52-1-5.87-14.37-10.26-8.71C341,81.4,345.74,93.8,344.28,99.17Z"/></clipPath><clipPath id="clip-path-9"><path class="cls-1" d="M159.79,146.69a29.75,29.75,0,0,0,35.71-1.33l.62-.56a3.43,3.43,0,0,1,4.43,0h0c13.45,11.4,35.14,10.62,47.21-2.05,10.53-11.1,9.43-27.85-2.48-38a32.59,32.59,0,0,0-6.79-4.48A2.56,2.56,0,0,1,237,97.12c3.18-11.17-.54-23.54-11-32-14-11.45-36.2-11.74-50.37-.49-12.95,10.26-15.62,26.23-8.21,39a2.56,2.56,0,0,1-1,3.5,2.26,2.26,0,0,1-.48.21,26.79,26.79,0,0,0-8.54,5.15C146.63,122.06,147.58,137.78,159.79,146.69Z"/></clipPath><clipPath id="clip-path-10"><path class="cls-1" d="M188.63,99.17c-1.29,4.54-4.68,8.77-5.63,13.28a9.53,9.53,0,0,0,5.77,11.29c4.11,1.44,9.49.13,14.16-2.69a50.72,50.72,0,0,0,12.32-11.33,37.29,37.29,0,0,0,7.8-13.26c1.31-4.78.41-9.93-3.16-11.68-5.44-2.66-13.81,3.29-19.6,1.28-2.9-1-6.74-14.37-11.85-8.71C184.91,81.4,190.17,93.8,188.63,99.17Z"/></clipPath><clipPath id="clip-path-11"><path class="cls-1" d="M74.61,137.74a31,31,0,0,0,55.77,14.9,20.75,20.75,0,0,0,36.06-16.21,20.41,20.41,0,0,0-2.63-8,34.89,34.89,0,1,0-51.89-26.31,9.82,9.82,0,0,0,.25,1.7,30.26,30.26,0,0,0-10.26-.53A31,31,0,0,0,74.6,137.7Z"/></clipPath><clipPath id="clip-path-12"><path class="cls-1" d="M132.47,108.25a27.11,27.11,0,0,0-8.64,8.51,13.32,13.32,0,0,0,.53,13.51,12.43,12.43,0,0,0,12.32,5.3,11.63,11.63,0,0,0,9.21-9.49c.62-4.47-1.54-8.93-1.31-13.42s2.52-7,4.1-10.74c1-2.32,2.2-2.52-.34-3C143.86,97.94,135.57,106,132.47,108.25Z"/></clipPath><clipPath id="clip-path-13"><path class="cls-1" d="M158.29,163.15a25.07,25.07,0,0,1-24.45,22.72h-.93a2.9,2.9,0,0,0-2.91,2.87v.07h0a30.07,30.07,0,1,1-59-7.93,2.87,2.87,0,0,0-1.32-3.2,34.9,34.9,0,1,1,50.58-41.59,2.87,2.87,0,0,0,3.61,1.88l.19-.07a24.91,24.91,0,0,1,34.33,23.16C158.38,161.76,158.35,162.45,158.29,163.15Z"/></clipPath><clipPath id="clip-path-14"><path class="cls-1" d="M95.69,146.47c3.67,1,7.73,0,11.29,1.47a10.82,10.82,0,0,1,6.38,10.62,16,16,0,0,1-6.16,11.26,31,31,0,0,1-11.88,5.61,22.09,22.09,0,0,1-11.93.47,10,10,0,0,1-7.47-8.48c-.29-6.15,6.55-10.67,6.83-16.81.15-3.06-8.33-13-2.68-14.74C84,134.52,91.35,145.21,95.69,146.47Z"/></clipPath><clipPath id="clip-path-15"><path class="cls-1" d="M336.38,154.4C335,168.52,321.25,179.64,305,179.87h-1a3.47,3.47,0,0,0-3.73,3.19.28.28,0,0,0,0,.09h0c-.12,19.48-19.11,34.9-41.73,33.4-19.77-1.42-35.28-16.17-35.31-33.54a30,30,0,0,1,1.42-8.72,3,3,0,0,0-1.66-3.6c-13.65-6.93-22.7-20-22.27-34.89.59-20,18.92-36.74,41.79-38,20.89-1.17,39,10.26,45.16,26.31a3.83,3.83,0,0,0,4.86,2,36.37,36.37,0,0,1,12.32-2C323.16,124.1,338,138,336.38,154.4Z"/></clipPath><clipPath id="clip-path-16"><path class="cls-1" d="M257,136.22c4.68,1.19,9.89.13,14.37,1.65a12.14,12.14,0,0,1,8.21,11.9,17.49,17.49,0,0,1-8,12.62,42.77,42.77,0,0,1-15.28,6.16,32.59,32.59,0,0,1-15.27.54c-4.92-1.3-9.34-5-9.56-9.53-.37-6.87,8.37-11.94,8.76-18.82.19-3.43-10.69-14.53-3.47-16.52C242,122.84,251.46,134.83,257,136.22Z"/></clipPath><clipPath id="clip-path-17"><path class="cls-1" d="M227,204.64a26.5,26.5,0,0,1-35.22-1.52c-.21-.21-.41-.41-.6-.64a3.05,3.05,0,0,0-4.32,0l-.05,0h0a31.55,31.55,0,0,1-45.38-43.84q.66-.67,1.35-1.32a31.48,31.48,0,0,1,6.69-5,3,3,0,0,0,1.46-3.37,37.11,37.11,0,0,1,60.51-36.8,36.61,36.61,0,0,1,8.21,43.9A3,3,0,0,0,221,160.1l.07,0a25.91,25.91,0,0,1,8.4,5.78,26.34,26.34,0,0,1-.81,37.24C228.15,203.68,227.59,204.17,227,204.64Z"/></clipPath><clipPath id="clip-path-18"><path class="cls-1" d="M198.6,151.21c1.28,5.09,4.62,9.85,5.55,15,1.06,5.91-1.61,11.09-5.71,12.71s-9.34.12-13.94-3a53.14,53.14,0,0,1-12.31-12.77,43.77,43.77,0,0,1-7.68-14.94c-1.31-5.4-.41-11.21,3.1-13.18,5.36-3,13.61,3.72,19.31,1.44,2.86-1.13,6.63-16.2,11.66-9.79C202.26,131.17,197.09,145.13,198.6,151.21Z"/></clipPath><clipPath id="clip-path-19"><path class="cls-1" d="M406.45,204.64a33.58,33.58,0,0,1-40.23-1.52l-.7-.64a3.86,3.86,0,0,0-5,0h0c-15.12,12.81-39.57,12-53.16-2.36-11.86-12.52-10.59-31.38,2.81-42.86a36.71,36.71,0,0,1,7.66-5,2.9,2.9,0,0,0,1.68-3.36c-3.57-12.59.6-26.54,12.32-36.11,15.87-12.91,40.83-13.22,56.79-.65,14.6,11.45,17.6,29.55,9.28,43.9a2.86,2.86,0,0,0,1.11,3.88,2.94,2.94,0,0,0,.51.23,29.93,29.93,0,0,1,9.61,5.78C421.25,176.91,420.22,194.7,406.45,204.64Z"/></clipPath><clipPath id="clip-path-20"><path class="cls-1" d="M374,151.21c1.46,5.09,5.27,9.85,6.32,15a10.72,10.72,0,0,1-6.51,12.71c-4.7,1.62-10.67.12-15.92-3a57.34,57.34,0,0,1-14-12.75,42.17,42.17,0,0,1-8.77-14.94c-1.5-5.4-.47-11.21,3.55-13.18,6.16-3,15.56,3.72,22.09,1.44,3.26-1.13,7.57-16.2,13.32-9.79C378.15,131.17,372.23,145.13,374,151.21Z"/></clipPath><clipPath id="clip-path-21"><path class="cls-1" d="M502.41,194.66a34.9,34.9,0,0,1-62.81,16.79,23.38,23.38,0,0,1-37.68-27.26,39.28,39.28,0,1,1,58.47-29.62,10.36,10.36,0,0,1-.28,1.91,34,34,0,0,1,11.59-.59,34.9,34.9,0,0,1,30.73,38.61C502.42,194.56,502.42,194.61,502.41,194.66Z"/></clipPath><clipPath id="clip-path-22"><path class="cls-1" d="M437.24,161.41C441,164.12,444.81,167,447,171a15,15,0,0,1-.62,15.12,14,14,0,0,1-13.79,6,13.06,13.06,0,0,1-10.36-10.7c-.72-5,1.72-10,1.47-15.11s-2.93-7.88-4.78-12c-1.17-2.59-2.5-2.84.37-3.43C424.41,149.81,433.75,158.88,437.24,161.41Z"/></clipPath><clipPath id="clip-path-23"><path class="cls-1" d="M417.2,569.87H151.36c-22.35,0-41.33-19.77-44.65-46.12L65,192.87H503.53L461.82,523.75C458.51,550.1,439.52,569.87,417.2,569.87Z"/></clipPath><clipPath id="clip-path-24"><rect class="cls-1" x="57" y="182.87" width="459" height="19" rx="8.56"/></clipPath></defs><g id="Layer_1-2" data-name="Layer 1"><path class="cls-2" d="M305.75,57.87a22,22,0,0,1-35.3,17.55A27.3,27.3,0,0,1,221.6,51a28.07,28.07,0,0,1,2.29-3.79,28.74,28.74,0,1,1,49.26-8.62,22,22,0,0,1,32.66,19.25Z"/><g class="cls-3"><path class="cls-4" d="M303,52.27A22,22,0,0,1,267.69,69.8,27.3,27.3,0,0,1,216,57.49c0-5.94-2.22-9.22,1-13.72-4.11-4.94-2.39-13.48-2.39-20.4a28.74,28.74,0,0,1,57.35,0,82.81,82.81,0,0,1-2.05,16.3c3.18-1.75,7.21-9.46,11.07-9.46a22,22,0,0,1,22,22Z"/><g class="cls-5"><path class="cls-6" d="M229.78,63.89c2.88,1.93,5.11,4.72,8.09,6.46a27.65,27.65,0,0,0,11.89,2.8c4.63.39,9.58.69,13.67-1.54s6.77-7.21,10.05-11A27.61,27.61,0,0,1,292,51.35c4.25-.31,9,.61,11.59,4,3.23,4.1,1.89,10.45-1.54,14.37s-8.45,6.16-13.3,8C270.81,84.93,252,92,232.76,90.39c-6.16-.49-13.08-2.4-16.2-7.8-2.44-4.27-4.24-13.9-1.45-18.47S226.42,60.48,229.78,63.89Z"/></g></g><path class="cls-7" d="M258.05,43.75c2.5,2.06,5.19,4.25,5.81,7.39,1,5-4.38,9.67-9.51,9.34s-9.4-4.1-12-8.6a53.63,53.63,0,0,1-3.49-7.59C230.48,23.27,250.39,37.64,258.05,43.75Z"/><g class="cls-8"><path class="cls-9" d="M255.42,41.11c2.5,2,5.17,4.24,5.79,7.38,1,5-4.37,9.67-9.5,9.36s-9.41-4.1-12-8.62a52.62,52.62,0,0,1-3.49-7.59C227.85,20.62,247.74,35,255.42,41.11Z"/></g><path class="cls-2" d="M380,109.69a22.26,22.26,0,0,0,21.71,20.18h.74a2.59,2.59,0,0,1,2.59,2.6h0a26.69,26.69,0,1,0,52.46-7.06,2.55,2.55,0,0,1,1.15-2.86,31,31,0,1,0-44.87-36.94,2.56,2.56,0,0,1-3.23,1.64l-.13,0A22.12,22.12,0,0,0,380,109.69Z"/><g class="cls-10"><path class="cls-4" d="M384.83,105.67a22.32,22.32,0,0,0,21.72,20.2h.86a2.55,2.55,0,0,1,2.59,2.5v.11h0a26.69,26.69,0,0,0,53.37-.11h0c0-2.42,5.21-4.74,4.6-7a2.52,2.52,0,0,1,1-2.82c9.46-5.5,10.26-15.86,9.92-27.64a31.21,31.21,0,0,0-28.9-30C435.53,60,418.89,66.26,414.52,79c-.5,1.4-2.06,4.91-3.37,4.35-2.63-1.07-1.34-1.64-4.33-1.64a22.13,22.13,0,0,0-22.06,22.2C384.76,104.52,384.79,105.09,384.83,105.67Z"/><path class="cls-2" d="M398.73,102.77a35.05,35.05,0,0,1,7.39,17.65c.68,6.38-2.05,13.63-8.21,16a16,16,0,0,1-13.32-1.69,27.59,27.59,0,0,1-13.59-27A27,27,0,0,1,383.17,88.6a4.59,4.59,0,0,1,3.6-1c2.4.72,2.34,4.43,4.66,8.35S395.59,99.67,398.73,102.77Z"/></g><path class="cls-7" d="M435.62,95c-3.24.94-6.86.1-10,1.31a9.68,9.68,0,0,0-5.66,9.44,14.39,14.39,0,0,0,5.52,10,27.58,27.58,0,0,0,10.59,4.9,19.87,19.87,0,0,0,10.57.41,8.92,8.92,0,0,0,6.65-7.53c.25-5.44-5.81-9.46-6.16-14.92-.12-2.71,7.41-11.52,2.41-13.08C446,84.37,439.48,93.86,435.62,95Z"/><g class="cls-11"><path class="cls-9" d="M437,92.22c-3.24.94-6.85,0-10,1.31a9.63,9.63,0,0,0-5.69,9.42,14.28,14.28,0,0,0,5.52,10,27.92,27.92,0,0,0,10.6,5,20,20,0,0,0,10.57.43,9,9,0,0,0,6.63-7.56c.24-5.44-5.81-9.46-6.16-14.9-.12-2.71,7.41-11.51,2.4-13.1C447.38,81.6,440.85,91.11,437,92.22Z"/></g><path class="cls-2" d="M222,102.29c1.23,12.52,13.45,22.42,27.84,22.58h.92a3.09,3.09,0,0,1,3.32,2.86.22.22,0,0,0,0,.08h0c0,17.3,16.95,31.07,36.94,29.64,17.55-1.26,31.33-14.37,31.35-29.77a27,27,0,0,0-1.17-7.78,2.68,2.68,0,0,1,1.47-3.18c12.11-6.16,20.16-17.75,19.77-31C341.9,68,325.64,53.13,305.34,52c-18.47-1-34.57,9-40.17,23.36a3.39,3.39,0,0,1-4.31,1.79A31.65,31.65,0,0,0,250,75.32C233.66,75.42,220.53,87.7,222,102.29Z"/><g class="cls-12"><path class="cls-4" d="M227.3,97.29c1.21,12.52,13.42,22.42,27.81,22.58h.95a3.11,3.11,0,0,1,3.32,2.9h0c0,17.31,16.94,31.08,36.95,29.64,17.57-1.25,31.34-14.36,31.34-29.76,0-2.69,6.67-5.31,5.91-7.78a2.69,2.69,0,0,1,1.48-3.18c12.11-6.16,13.08-17.75,12.69-31C347.23,63,331,48.11,310.66,47c-18.48-1-39.87,6-45.47,20.26-.62,1.58-2.56,5.52-4.31,4.89-3.35-1.19-1.7-1.85-5.54-1.83C239,70.38,225.88,82.66,227.3,97.29Z"/><path class="cls-2" d="M326.32,66.64c2.46-2.75,7.88-7.82,10-6.51s-1.52,8.07-3.47,19.46c-1.88,11-.49,13.77-1.35,38.57-.18,5-.49,10.26-3.63,14.22-4.52,5.63-16.32,4.83-19.73-.3-2.77-4.11.15-10.59,1.91-14.54,3.2-7.1,6.28-7.2,8.21-12.78,2.05-6.3-1.25-7.82-.68-16.88A37.09,37.09,0,0,1,326.32,66.64Zm-72.77,39.9c-7-7.67-9.34-6.61-11.11-11.16-1.51-3.86,0-5.16-1.68-10.41-.51-1.68-2.91-9.55-6.42-10-5.79-.8-18.25,16.53-14.86,33.46,2.79,13.86,15.12,22,23.93,24.63a15.29,15.29,0,0,0,11.64-.37c4.94-2.71,5.81-9,5.95-10.51v-.22C261.43,116.83,258.29,111.8,253.55,106.54Z"/></g><path class="cls-7" d="M292.37,85.89c-4.11,1-8.79,0-12.83,1.46a10.76,10.76,0,0,0-7.27,10.57,15.48,15.48,0,0,0,7.06,11.19,37.83,37.83,0,0,0,13.57,5.5,28.89,28.89,0,0,0,13.55.47c4.37-1.15,8.21-4.45,8.5-8.43.32-6.16-7.45-10.62-7.78-16.71-.17-3,9.48-12.91,3.08-14.68C305.73,74,297.38,84.64,292.37,85.89Z"/><g class="cls-13"><path class="cls-9" d="M294.19,82.79c-4.1,1-8.78.11-12.82,1.46a10.76,10.76,0,0,0-7.27,10.57A15.6,15.6,0,0,0,281.16,106a37.54,37.54,0,0,0,13.57,5.48,28.63,28.63,0,0,0,13.55.47c4.37-1.15,8.21-4.43,8.49-8.43.33-6.16-7.45-10.62-7.78-16.71-.16-3,9.49-12.89,3.08-14.66C307.5,70.91,299.14,81.54,294.19,82.79Z"/></g><path class="cls-2" d="M319.05,146.69a23.51,23.51,0,0,0,31.24-1.33l.54-.56a2.7,2.7,0,0,1,3.83,0l0,0h0a28,28,0,1,0,33.17-44.7,2.7,2.7,0,0,1-1.3-3,32.74,32.74,0,1,0-60.9,6.47,2.68,2.68,0,0,1-1.11,3.63l-.16.08a22.74,22.74,0,0,0-7.41,5,23.31,23.31,0,0,0,.49,33C318,145.79,318.51,146.25,319.05,146.69Z"/><g class="cls-14"><path class="cls-4" d="M319.05,140.53a23.5,23.5,0,0,0,31.24-1.35l.54-.56a2.7,2.7,0,0,1,3.83,0l0,0h0a28,28,0,1,0,41.12-38.06,27.65,27.65,0,0,0-2.13-2.06c-1.82-1.79.23-7.43-1.88-8.62a2.67,2.67,0,0,1-1.3-3C393.29,75.73,386,67.5,376.83,59a32.84,32.84,0,0,0-44.07-.59c-11.33,10.26-18.8,27.3-12.31,40.05.69,1.39,2.25,5.15.82,5.76-2.73,1.17-2.22-.22-4.41,2.06a23.34,23.34,0,0,0,.79,33C318.1,139.73,318.57,140.14,319.05,140.53Z"/></g><path class="cls-7" d="M344.28,99.17c-1.13,4.54-4.11,8.77-4.91,13.28-1,5.28,1.4,9.86,5.05,11.29s8.21.13,12.32-2.69a47.68,47.68,0,0,0,10.92-11.31,38.53,38.53,0,0,0,6.81-13.28c1.15-4.78.35-9.93-2.75-11.68-4.76-2.66-12.09,3.29-17.16,1.28-2.52-1-5.87-14.37-10.26-8.71C341,81.4,345.74,93.8,344.28,99.17Z"/><g class="cls-15"><path class="cls-9" d="M348.26,95.38c-1.15,4.53-4.11,8.74-4.93,13.28-.94,5.25,1.42,9.83,5.05,11.29s8.21,0,12.32-2.69a47.79,47.79,0,0,0,10.88-11.33,38.74,38.74,0,0,0,6.79-13.26c1.17-4.79.37-9.94-2.75-11.7-4.76-2.67-12.07,3.3-17.14,1.29-2.52-1-5.89-14.37-10.26-8.7C345,77.52,349.59,89.92,348.26,95.38Z"/></g><path class="cls-2" d="M159.79,146.69a29.75,29.75,0,0,0,35.71-1.33l.62-.56a3.43,3.43,0,0,1,4.43,0h0c13.45,11.4,35.14,10.62,47.21-2.05,10.53-11.1,9.43-27.85-2.48-38a32.59,32.59,0,0,0-6.79-4.48A2.56,2.56,0,0,1,237,97.12c3.18-11.17-.54-23.54-11-32-14-11.45-36.2-11.74-50.37-.49-12.95,10.26-15.62,26.23-8.21,39a2.56,2.56,0,0,1-1,3.5,2.26,2.26,0,0,1-.48.21,26.79,26.79,0,0,0-8.54,5.15C146.63,122.06,147.58,137.78,159.79,146.69Z"/><g class="cls-16"><path class="cls-4" d="M159.69,140.53a29.77,29.77,0,0,0,35.71-1.35l.62-.56a3.43,3.43,0,0,1,4.43,0h0c13.45,11.4,35.14,10.62,47.21-2.05,10.53-11.1,9.4-27.85-2.5-38-2.06-1.79.26-7.43-2.06-8.62a2.54,2.54,0,0,1-1.47-3c3.16-11.17-5.18-19.4-15.64-27.89-14.11-11.46-36.25-11.73-50.42-.6-12.95,10.26-21.51,27.3-14.12,40.05.82,1.39,2.59,5.15,1,5.76-3.12,1.17-2.55-.22-5.07,2.06C146.63,115.9,147.45,131.6,159.69,140.53Z"/><path class="cls-2" d="M183.93,105.48c-1.21,8-4.74,15.51-8.21,22.84-1.19,2.5-2.86,5.36-5.63,5.6-3.77.35-5.87-4.2-6.63-7.92a123.6,123.6,0,0,1-1-44.31c.59-3.78,1.84-10.27,6.36-11.44s7.8,4.7,9.71,8A41.84,41.84,0,0,1,183.93,105.48Z"/></g><path class="cls-7" d="M188.63,99.17c-1.29,4.54-4.68,8.77-5.63,13.28a9.53,9.53,0,0,0,5.77,11.29c4.11,1.44,9.49.13,14.16-2.69a50.72,50.72,0,0,0,12.32-11.33,37.29,37.29,0,0,0,7.8-13.26c1.31-4.78.41-9.93-3.16-11.68-5.44-2.66-13.81,3.29-19.6,1.28-2.9-1-6.74-14.37-11.85-8.71C184.91,81.4,190.17,93.8,188.63,99.17Z"/><g class="cls-17"><path class="cls-9" d="M193.16,95.38c-1.29,4.53-4.68,8.74-5.62,13.28A9.54,9.54,0,0,0,193.33,120c4.1,1.43,9.46,0,14.14-2.69a51.49,51.49,0,0,0,12.32-11.33,37.61,37.61,0,0,0,7.8-13.26c1.31-4.79.41-9.94-3.16-11.7-5.44-2.67-13.82,3.3-19.61,1.29-2.89-1-6.71-14.37-11.82-8.7C189.45,77.52,194.7,89.92,193.16,95.38Z"/></g><path class="cls-2" d="M74.61,137.74a31,31,0,0,0,55.77,14.9,20.75,20.75,0,0,0,36.06-16.21,20.41,20.41,0,0,0-2.63-8,34.89,34.89,0,1,0-51.89-26.31,9.82,9.82,0,0,0,.25,1.7,30.26,30.26,0,0,0-10.26-.53A31,31,0,0,0,74.6,137.7Z"/><g class="cls-18"><path class="cls-4" d="M80.35,140.35a31.07,31.07,0,0,0,34.43,27.24c8.84-1,17.4-2.06,22.33-8.66,4.33,4.84,9.91,3.9,16.85,3.07a20.71,20.71,0,0,0,15.6-30.93,34.89,34.89,0,1,0-51.91-26.29,9.17,9.17,0,0,0,.27,1.68,31,31,0,0,0-37.57,33.89Z"/></g><path class="cls-7" d="M132.47,108.25a27.11,27.11,0,0,0-8.64,8.51,13.32,13.32,0,0,0,.53,13.51,12.43,12.43,0,0,0,12.32,5.3,11.63,11.63,0,0,0,9.21-9.49c.62-4.47-1.54-8.93-1.31-13.42s2.52-7,4.1-10.74c1-2.32,2.2-2.52-.34-3C143.86,97.94,135.57,106,132.47,108.25Z"/><g class="cls-19"><path class="cls-9" d="M135.63,104.24a27.45,27.45,0,0,0-8.64,8.52,13.33,13.33,0,0,0,.53,13.41,12.32,12.32,0,0,0,12.32,5.29,11.59,11.59,0,0,0,9.13-9.4c.64-4.47-1.54-8.91-1.31-13.42s2.6-7,4.25-10.66c1-2.3,2.21-2.52-.33-3C147,93.94,138.73,102,135.63,104.24Z"/></g><g class="cls-5"><path class="cls-6" d="M95,154.57l187.26,11.21,172.56-30.25a20.53,20.53,0,0,0-6.4-19.26c-9.51-5-16.28-4.92-20.65-3.94-8.85,2-14,9-22.05,7.35a15.15,15.15,0,0,1-6.81-3.41,76.3,76.3,0,0,0-42.49-14.1,33.75,33.75,0,0,0-34.14,24.2,26.92,26.92,0,0,1-15.12,1.29,26.24,26.24,0,0,1-9.43-4.1A57.44,57.44,0,0,0,255,97.43a55.41,55.41,0,0,0-39.64,14.37,25.45,25.45,0,0,0-10.4-6.9,26.69,26.69,0,0,0-18,.43c-2.78.25-19.18,1.85-29.17,15.68a37.33,37.33,0,0,0-6.55,16.71A19,19,0,0,1,140.47,141a18.68,18.68,0,0,1-8.21-2.06,32.23,32.23,0,0,0-24.75-23.48c-16.13-3.12-27.73,8.09-28.74,9Z"/></g><path class="cls-2" d="M158.29,163.15a25.07,25.07,0,0,1-24.45,22.72h-.93a2.9,2.9,0,0,0-2.91,2.87v.07h0a30.07,30.07,0,1,1-59-7.93,2.87,2.87,0,0,0-1.32-3.2,34.9,34.9,0,1,1,50.58-41.59,2.87,2.87,0,0,0,3.61,1.88l.19-.07a24.91,24.91,0,0,1,34.33,23.16C158.38,161.76,158.35,162.45,158.29,163.15Z"/><g class="cls-20"><path class="cls-4" d="M153.2,158.13a25.07,25.07,0,0,1-24.46,22.74h-.83A2.88,2.88,0,0,0,125,183.7v0h0a30.07,30.07,0,0,1-60.12,0c0-2.73-5.87-5.33-5.19-7.84a2.88,2.88,0,0,0-1.32-3.2c-10.65-6.16-11.49-17.86-11.16-31.14a35.12,35.12,0,0,1,32.61-33.95c16.42-1,35.06,6,40,20.38.53,1.56,2.23,5.53,3.79,4.91,2.94-1.21,1.48-1.87,4.87-1.85a24.9,24.9,0,0,1,24.81,25C153.3,156.74,153.26,157.43,153.2,158.13Z"/><path class="cls-2" d="M137.25,155.23A39.51,39.51,0,0,0,129,175.12c-.78,7.21,2.4,15.37,9.16,18,4.84,1.91,10.42.62,15-1.91a31.12,31.12,0,0,0,15.42-30.46,30.52,30.52,0,0,0-13.78-21.51,5.35,5.35,0,0,0-4.1-1.11c-2.71.8-2.63,5-5.24,9.4S140.8,151.74,137.25,155.23Z"/></g><path class="cls-7" d="M95.69,146.47c3.67,1,7.73,0,11.29,1.47a10.82,10.82,0,0,1,6.38,10.62,16,16,0,0,1-6.16,11.26,31,31,0,0,1-11.88,5.61,22.09,22.09,0,0,1-11.93.47,10,10,0,0,1-7.47-8.48c-.29-6.15,6.55-10.67,6.83-16.81.15-3.06-8.33-13-2.68-14.74C84,134.52,91.35,145.21,95.69,146.47Z"/><g class="cls-21"><path class="cls-9" d="M94.15,143.35c3.65,1.06,7.71,0,11.27,1.47a10.89,10.89,0,0,1,6.32,10.64,16,16,0,0,1-6.16,11.27,31.37,31.37,0,0,1-11.93,5.52,22.37,22.37,0,0,1-11.9.47,10.05,10.05,0,0,1-7.49-8.5c-.29-6.16,6.54-10.67,6.83-16.79.17-3.06-8.33-13-2.69-14.76C82.45,131.4,89.79,142.09,94.15,143.35Z"/></g><path class="cls-2" d="M336.38,154.4C335,168.52,321.25,179.64,305,179.87h-1a3.47,3.47,0,0,0-3.73,3.19.28.28,0,0,0,0,.09h0c-.12,19.48-19.11,34.9-41.73,33.4-19.77-1.42-35.28-16.17-35.31-33.54a30,30,0,0,1,1.42-8.72,3,3,0,0,0-1.66-3.6c-13.65-6.93-22.7-20-22.27-34.89.59-20,18.92-36.74,41.79-38,20.89-1.17,39,10.26,45.16,26.31a3.83,3.83,0,0,0,4.86,2,36.37,36.37,0,0,1,12.32-2C323.16,124.1,338,138,336.38,154.4Z"/><g class="cls-22"><path class="cls-4" d="M330.4,149.4c-1.37,14.12-15.13,25.26-31.34,25.47H298a3.51,3.51,0,0,0-3.75,3.25v0h0c0,19.48-19.09,35-41.71,33.4-19.77-1.4-35.29-16.17-35.31-33.52,0-3.06-7.51-6-6.65-8.78a3,3,0,0,0-1.68-3.6c-13.63-6.93-14.72-20-14.37-34.89.6-20,18.92-36.74,41.79-38,20.9-1.17,44.91,6.74,51.32,22.85.69,1.77,2.89,6.16,4.86,5.5,3.78-1.35,1.93-2,6.16-2C317.27,119.14,332,133,330.4,149.4Z"/><path class="cls-2" d="M228.74,138.48c.63,10.26-3.16,11.91-.78,19,2,6.28,5.56,6.4,9.17,14.37,2.05,4.43,5.28,11.68,2.18,16.42-3.86,5.79-17.14,6.69-22.25.35-3.53-4.38-3.88-10.43-4.11-16-1-27.94.6-31.08-1.52-43.46-2.21-12.85-6.38-20.42-3.92-21.92s8.5,4.25,11.27,7.33A41.91,41.91,0,0,1,228.74,138.48ZM293,176.87v.24c.16,1.66,1.13,8.79,6.71,11.84,3.94,2.06,8.81,1.69,13.12.42,9.91-2.94,23.81-12.07,26.95-27.67,3.84-19.11-10.26-38.61-16.73-37.71-4,.55-6.67,9.4-7.25,11.31-1.82,5.91-.2,7.39-1.88,11.72-2.06,5.13-4.62,3.92-12.52,12.58-5.28,5.75-8.83,11.5-8.4,17.16Z"/></g><path class="cls-7" d="M257,136.22c4.68,1.19,9.89.13,14.37,1.65a12.14,12.14,0,0,1,8.21,11.9,17.49,17.49,0,0,1-8,12.62,42.77,42.77,0,0,1-15.28,6.16,32.59,32.59,0,0,1-15.27.54c-4.92-1.3-9.34-5-9.56-9.53-.37-6.87,8.37-11.94,8.76-18.82.19-3.43-10.69-14.53-3.47-16.52C242,122.84,251.46,134.83,257,136.22Z"/><g class="cls-23"><path class="cls-9" d="M255,132.73c4.68,1.19,9.89.13,14.37,1.67a12.12,12.12,0,0,1,8.21,11.9A17.52,17.52,0,0,1,269.79,159a43,43,0,0,1-15.27,6.16,32.72,32.72,0,0,1-15.27.53c-4.93-1.29-9.34-5-9.57-9.53-.37-6.85,8.38-11.94,8.77-18.82.18-3.43-10.7-14.53-3.47-16.42C240.05,119.35,249.47,131.34,255,132.73Z"/></g><path class="cls-2" d="M227,204.64a26.5,26.5,0,0,1-35.22-1.52c-.21-.21-.41-.41-.6-.64a3.05,3.05,0,0,0-4.32,0l-.05,0h0a31.55,31.55,0,0,1-45.38-43.84q.66-.67,1.35-1.32a31.48,31.48,0,0,1,6.69-5,3,3,0,0,0,1.46-3.37,37.11,37.11,0,0,1,60.51-36.8,36.61,36.61,0,0,1,8.21,43.9A3,3,0,0,0,221,160.1l.07,0a25.91,25.91,0,0,1,8.4,5.78,26.34,26.34,0,0,1-.81,37.24C228.15,203.68,227.59,204.17,227,204.64Z"/><g class="cls-24"><path class="cls-4" d="M227.11,197.66a26.44,26.44,0,0,1-35.18-1.5l-.61-.64a3,3,0,0,0-4.3-.05s0,0-.05.05h0a31.55,31.55,0,0,1-45.38-43.84c.43-.45.88-.89,1.35-1.31,2.05-2.06-.27-8.38,2.05-9.71a3.06,3.06,0,0,0,1.46-3.37c-3.12-12.58,5.09-21.86,15.41-31.42a36.93,36.93,0,0,1,49.65-.66c12.77,11.45,21.19,30.79,13.92,45.16-.8,1.56-2.54,5.78-.94,6.48,3.08,1.32,2.5-.26,5,2.28a26.3,26.3,0,0,1-.84,37.18Q227.91,197,227.11,197.66Z"/></g><path class="cls-7" d="M198.6,151.21c1.28,5.09,4.62,9.85,5.55,15,1.06,5.91-1.61,11.09-5.71,12.71s-9.34.12-13.94-3a53.14,53.14,0,0,1-12.31-12.77,43.77,43.77,0,0,1-7.68-14.94c-1.31-5.4-.41-11.21,3.1-13.18,5.36-3,13.61,3.72,19.31,1.44,2.86-1.13,6.63-16.2,11.66-9.79C202.26,131.17,197.09,145.13,198.6,151.21Z"/><g class="cls-25"><path class="cls-9" d="M194.13,146.81c1.27,5.12,4.62,9.88,5.54,15,1.07,5.91-1.58,11.06-5.7,12.7s-9.34.13-13.94-3a53.18,53.18,0,0,1-12.32-12.77A43.92,43.92,0,0,1,160,143.78c-1.32-5.4-.42-11.21,3.09-13.18,5.36-3,13.61,3.71,19.32,1.44,2.85-1.13,6.63-16.2,11.66-9.79C197.78,126.8,192.61,140.76,194.13,146.81Z"/></g><path class="cls-2" d="M406.45,204.64a33.58,33.58,0,0,1-40.23-1.52l-.7-.64a3.86,3.86,0,0,0-5,0h0c-15.12,12.81-39.57,12-53.16-2.36-11.86-12.52-10.59-31.38,2.81-42.86a36.71,36.71,0,0,1,7.66-5,2.9,2.9,0,0,0,1.68-3.36c-3.57-12.59.6-26.54,12.32-36.11,15.87-12.91,40.83-13.22,56.79-.65,14.6,11.45,17.6,29.55,9.28,43.9a2.86,2.86,0,0,0,1.11,3.88,2.94,2.94,0,0,0,.51.23,29.93,29.93,0,0,1,9.61,5.78C421.25,176.91,420.22,194.7,406.45,204.64Z"/><g class="cls-26"><path class="cls-4" d="M406.57,197.66a33.53,33.53,0,0,1-40.31-1.5l-.7-.64a3.85,3.85,0,0,0-5,0h0c-15.15,12.81-39.6,11.95-53.17-2.36-11.88-12.52-10.61-31.38,2.79-42.86,2.37-2.05-.28-8.37,2.45-9.7a2.9,2.9,0,0,0,1.66-3.37c-3.55-12.58,5.83-21.86,17.63-31.43,15.89-12.91,40.83-13.22,56.8-.65,14.59,11.45,24.22,30.79,15.88,45.15-.9,1.56-2.91,5.79-1.06,6.49,3.51,1.31,2.87-.27,5.7,2.28C421.37,170,420.35,187.74,406.57,197.66Z"/><path class="cls-2" d="M379.25,158.31c1.36,9.05,5.34,17.47,9.28,25.72,1.36,2.83,3.22,6,6.34,6.32,4.25.39,6.61-4.74,7.48-8.93a139.37,139.37,0,0,0,1.17-49.92c-.68-4.27-2.06-11.64-7.17-12.91s-8.78,5.32-10.94,9A47.46,47.46,0,0,0,379.25,158.31Z"/></g><path class="cls-7" d="M374,151.21c1.46,5.09,5.27,9.85,6.32,15a10.72,10.72,0,0,1-6.51,12.71c-4.7,1.62-10.67.12-15.92-3a57.34,57.34,0,0,1-14-12.75,42.17,42.17,0,0,1-8.77-14.94c-1.5-5.4-.47-11.21,3.55-13.18,6.16-3,15.56,3.72,22.09,1.44,3.26-1.13,7.57-16.2,13.32-9.79C378.15,131.17,372.23,145.13,374,151.21Z"/><g class="cls-27"><path class="cls-9" d="M368.87,146.81c1.46,5.12,5.27,9.88,6.32,15a10.73,10.73,0,0,1-6.51,12.7c-4.7,1.63-10.69.13-15.95-3a57.49,57.49,0,0,1-14-12.77A41.86,41.86,0,0,1,330,143.78c-1.5-5.4-.47-11.21,3.55-13.18,6.16-3,15.56,3.71,22.09,1.44,3.26-1.13,7.57-16.2,13.32-9.79C373,126.8,367.12,140.76,368.87,146.81Z"/></g><path class="cls-2" d="M502.41,194.66a34.9,34.9,0,0,1-62.81,16.79,23.38,23.38,0,0,1-37.68-27.26,39.28,39.28,0,1,1,58.47-29.62,10.36,10.36,0,0,1-.28,1.91,34,34,0,0,1,11.59-.59,34.9,34.9,0,0,1,30.73,38.61C502.42,194.56,502.42,194.61,502.41,194.66Z"/><g class="cls-28"><path class="cls-4" d="M496,197.6a34.88,34.88,0,0,1-38.54,30.81l-.23,0c-10-1.17-19.63-2.28-25.17-9.77-4.88,5.46-11.14,4.39-19,3.46a23.38,23.38,0,0,1-20.52-25.92h0a22.82,22.82,0,0,1,2.95-8.93,39.29,39.29,0,0,1-14.78-53.4c9-16,31.1-24,48.22-17.45a39.28,39.28,0,0,1,25,41.23,10.74,10.74,0,0,1-.28,1.91A34.88,34.88,0,0,1,496,197.7Z"/></g><path class="cls-7" d="M437.24,161.41C441,164.12,444.81,167,447,171a15,15,0,0,1-.62,15.12,14,14,0,0,1-13.79,6,13.06,13.06,0,0,1-10.36-10.7c-.72-5,1.72-10,1.47-15.11s-2.93-7.88-4.78-12c-1.17-2.59-2.5-2.84.37-3.43C424.41,149.81,433.75,158.88,437.24,161.41Z"/><g class="cls-29"><path class="cls-9" d="M433.67,157a30.79,30.79,0,0,1,9.75,9.59,15,15,0,0,1-.62,15.15A14,14,0,0,1,429,187.64,13.1,13.1,0,0,1,418.75,177c-.7-5,1.72-10,1.47-15.13-.22-4.76-2.93-7.88-4.78-12-1.17-2.6-2.48-2.83.37-3.43C420.84,145.3,430.2,154.39,433.67,157Z"/></g><path class="cls-30" d="M417.14,569.87H153.79c-22.14,0-40.95-19.39-44.24-45.62L68.24,194.87H502.67L461.35,524.25C458.07,550.48,439.26,569.87,417.14,569.87Z"/><g class="cls-31"><path class="cls-32" d="M96.69,192.63,148,599.56M476.75,192.63,425.44,599.56M286,195.87v396"/><path class="cls-33" d="M86.14,546.87H407.26a27.66,27.66,0,0,0,14.53-3.53c10-5.85,14.36-16.29,17.29-32.21l35.66-311.26H578v412H137.74Z"/></g><rect class="cls-34" x="57" y="182.87" width="459" height="19" rx="8.56"/><g class="cls-35"><rect class="cls-36" x="50" y="175.87" width="459" height="19" rx="8.56"/></g><line class="cls-37" x1="115" y1="188.87" x2="199" y2="188.87"/><line class="cls-37" x1="71" y1="188.87" x2="103" y2="188.87"/><line class="cls-38" x1="105.27" y1="314.6" x2="121.51" y2="439.23"/><line class="cls-38" x1="95.28" y1="237.93" x2="100.59" y2="278.67"/></g><path class="cls-39" d="M0,758.87v-158H32.81c5,0,9.12.84,12.33,2.51A18.06,18.06,0,0,1,52.87,612Q55.8,618,57,628.14a233.68,233.68,0,0,1,1.15,25.39A236.94,236.94,0,0,1,57,678.92q-1.16,10.35-4,16.72a19.37,19.37,0,0,1-7.84,9.3q-5,2.94-12.54,2.93H18v51Zm29.28-70a6,6,0,0,0,4.29-1.67,13.31,13.31,0,0,0,3-5.75,56.64,56.64,0,0,0,1.88-11.07q.63-7,.62-17.87,0-10.65-.62-17.34a45.49,45.49,0,0,0-1.88-10.24c-.84-2.37-1.88-4-3.14-4.81a7.75,7.75,0,0,0-4.39-1.25H18v70Z"/><path class="cls-39" d="M75.16,748.87A54.71,54.71,0,0,1,72.65,741,80,80,0,0,1,71,729.42q-.63-7.3-.94-19.13t-.32-30.42q0-18.6.32-30.31t.94-19A76.73,76.73,0,0,1,72.65,619a66,66,0,0,1,2.51-7.95q2.93-7.3,8.36-10.14t16.1-2.82q10.66,0,16.1,2.82t8.36,10.14a67.83,67.83,0,0,1,2.51,7.95,78.06,78.06,0,0,1,1.67,11.5q.63,7.32.94,19t.31,30.31q0,18.61-.31,30.42t-.94,19.13A81.46,81.46,0,0,1,126.59,741a56,56,0,0,1-2.51,7.84q-2.92,7.32-8.36,10.13t-16.1,2.83q-10.66,0-16.1-2.83T75.16,748.87Zm33.45-13.38a54.31,54.31,0,0,0,1-5.44q.42-2.92.74-8.68t.52-15.57q.21-9.82.21-26.34T111,653q-.11-9.93-.42-15.68c-.2-3.83-.45-6.69-.73-8.57s-.62-3.66-1-5.33a10,10,0,0,0-3-5.33c-1.33-1.05-3.38-1.57-6.17-1.57s-4.81.52-6.06,1.57a10.14,10.14,0,0,0-2.93,5.12c-.42,1.67-.81,3.48-1.15,5.43a77.41,77.41,0,0,0-.84,8.68q-.31,5.76-.41,15.68t-.11,26.45q0,16.51.11,26.34t.41,15.57a76.9,76.9,0,0,0,.84,8.68c.34,2,.73,3.76,1.15,5.44.69,2.5,1.67,4.25,2.93,5.22s3.27,1.46,6.06,1.46,4.81-.48,6.06-1.46S107.91,738,108.61,735.49Z"/><path class="cls-39" d="M144,758.87v-158h32.81c5,0,9.12.84,12.33,2.51a18.06,18.06,0,0,1,7.73,8.57Q199.8,618,201,628.14a233.68,233.68,0,0,1,1.15,25.39A236.94,236.94,0,0,1,201,678.92q-1.15,10.35-4,16.72a19.37,19.37,0,0,1-7.84,9.3q-5,2.94-12.54,2.93H162v51Zm29.28-70a6,6,0,0,0,4.29-1.67,13.31,13.31,0,0,0,3-5.75,56.64,56.64,0,0,0,1.88-11.07q.63-7,.62-17.87,0-10.65-.62-17.34a45.49,45.49,0,0,0-1.88-10.24c-.84-2.37-1.88-4-3.14-4.81a7.75,7.75,0,0,0-4.39-1.25H162v70Z"/><path class="cls-39" d="M272.57,698.87A59.3,59.3,0,0,1,273,706v7.16a148.84,148.84,0,0,1-1.39,21.68,47.93,47.93,0,0,1-4.72,15.47,22.14,22.14,0,0,1-8.89,9.27q-5.58,3-14.14,3-11.36,0-17.14-2.84t-8.79-10.21a44.08,44.08,0,0,1-2.57-8,90.07,90.07,0,0,1-1.71-12.42q-.65-7.79-1-19.79t-.32-30.53q0-21.25.54-33.79t1.39-19.47a49.75,49.75,0,0,1,1.93-9.9c.71-2,1.35-3.65,1.93-5.05q3-6.95,8.25-9.9t16.6-2.94a47.06,47.06,0,0,1,12.64,1.36,19.19,19.19,0,0,1,8.15,4.74q4.27,4.22,6.64,14.74t2.35,26.1q0,4.22-.1,7.37c-.08,2.11-.18,4.35-.32,6.74H254.31s.22-4.19-.31-5.86v-7.74a73.09,73.09,0,0,0-.24-15.47,27.34,27.34,0,0,0-2.32-8.78,6.88,6.88,0,0,0-3.31-3.56,14.84,14.84,0,0,0-5.52-.83c-3,0-5.08.49-6.41,1.46s-2.35,2.72-3.09,5.23c-.44,1.67-.85,3.52-1.21,5.54a77,77,0,0,0-.89,8.88q-.33,5.87-.44,15.58t-.11,25.19q0,15.69.11,25.72t.44,16.09a91,91,0,0,0,.89,9.41c.36,2.23.77,4.18,1.21,5.86a9.8,9.8,0,0,0,3.2,5.12c1.4,1,3.79,1.57,7.18,1.57a8,8,0,0,0,6.07-2.2,14.31,14.31,0,0,0,3.2-6.38,62.22,62.22,0,0,0,1.66-9.72c.37-3.69.58-12.85.58-12.85V705q0-3-.21-6.11Z"/><path class="cls-39" d="M290.49,748.87A54.71,54.71,0,0,1,288,741a80,80,0,0,1-1.67-11.61q-.63-7.3-.94-19.13t-.32-30.42q0-18.6.32-30.31t.94-19A76.73,76.73,0,0,1,288,619a66,66,0,0,1,2.51-7.95q2.92-7.3,8.36-10.14t16.1-2.82q10.67,0,16.1,2.82t8.36,10.14a67.83,67.83,0,0,1,2.51,7.95,76.73,76.73,0,0,1,1.67,11.5q.63,7.32.94,19t.31,30.31q0,18.61-.31,30.42t-.94,19.13A80,80,0,0,1,341.92,741a56,56,0,0,1-2.51,7.84q-2.93,7.32-8.36,10.13T315,761.83q-10.67,0-16.1-2.83T290.49,748.87Zm33.45-13.38a54.31,54.31,0,0,0,1-5.44q.42-2.92.74-8.68t.52-15.57q.21-9.82.21-26.34T326.34,653q-.1-9.93-.41-15.68c-.21-3.83-.46-6.69-.73-8.57s-.63-3.66-1.05-5.33a10,10,0,0,0-3-5.33c-1.33-1.05-3.38-1.57-6.17-1.57s-4.81.52-6.06,1.57a10.21,10.21,0,0,0-2.93,5.12q-.63,2.5-1.15,5.43a77.41,77.41,0,0,0-.84,8.68c-.2,3.84-.35,9.06-.41,15.68s-.11,15.44-.11,26.45,0,19.79.11,26.34.21,11.74.41,15.57a76.9,76.9,0,0,0,.84,8.68q.53,2.93,1.15,5.44c.7,2.5,1.67,4.25,2.93,5.22s3.27,1.46,6.06,1.46,4.81-.48,6.06-1.46S323.24,738,323.94,735.49Z"/><path class="cls-39" d="M400.51,758.87a18,18,0,0,1-1-2.62,24.37,24.37,0,0,1-.71-3.87c-.2-1.68-.41-3.94-.61-6.8s-.44-6.67-.71-11.42q-.41-7.95-.92-16c-.33-5.38-.84-10.71-1.52-16q-1-6.5-2.74-8.38t-5.79-1.88H377v67H359v-158h33.28q7.28,0,11.22,1.77a18,18,0,0,1,6.87,5.54,28.61,28.61,0,0,1,3.22,5.53,33.77,33.77,0,0,1,2.18,7.2,69.91,69.91,0,0,1,1.15,9.7q.31,5.53.31,12.84,0,7.51-.21,12.63t-.73,8.76a59.36,59.36,0,0,1-1.14,6.16,35.45,35.45,0,0,1-1.45,4.59,14.41,14.41,0,0,1-7.7,8.35v.81a11.58,11.58,0,0,1,4,3.87q1.94,2.83,2.74,9.32Q414.13,708.83,415,720t1.52,23.35q.4,4.82.92,8.16A39.81,39.81,0,0,0,419,758v.84Zm-15.15-84a16.33,16.33,0,0,0,6.27-1q2.5-1,4.18-4.59a16.89,16.89,0,0,0,1.25-3.35,35.29,35.29,0,0,0,.73-4.49c.21-1.88.35-4.24.42-7.1s.1-6.58.1-11.18q0-5.22-.1-8.67c-.07-2.3-.18-4.18-.31-5.64a14.13,14.13,0,0,0-.74-3.56,15.79,15.79,0,0,0-1.14-2.4,8.16,8.16,0,0,0-7.32-4H377v56Z"/><path class="cls-39" d="M482.4,758.87q-6.88-23-11.9-39.45t-8.45-28q-3.45-11.48-5.53-18.79c-1.4-4.86-2.54-8.83-3.45-11.89s-1.6-5.46-2.09-7.2-.87-3.31-1.14-4.7h-1q.21,6.69.21,14v96H432v-158h21.64q4.56,17.55,7.88,30t5.5,20.89q2.18,8.46,3.52,13.58c.9,3.41,1.59,6.13,2.07,8.14s.83,3.56,1,4.6.38,2,.52,2.82h1q-.21-4-.21-8.15V600.87h17v158Z"/><path class="cls-39" d="M508,758.87v-158h30.68q10.65,0,16.07,2.71t8.56,9.81a57.67,57.67,0,0,1,2.5,7.62,72.74,72.74,0,0,1,1.68,11.17q.62,7.1.83,18.36t.21,29.23q0,18.57-.31,30.05t-.94,18.47a81,81,0,0,1-1.57,11,43.51,43.51,0,0,1-2.4,7.31q-2.92,7.1-8.35,9.7t-16.28,2.61Zm29.92-19c2.78,0,4.84-.45,6.16-1.36a8.62,8.62,0,0,0,3-4.91c.41-1.53.8-3.28,1.14-5.23a66,66,0,0,0,.74-8.57q.19-5.64.31-15t.1-24.88q0-15.06-.1-24.36t-.31-15q-.21-5.75-.63-8.78a26.81,26.81,0,0,0-1.25-5.33,10.37,10.37,0,0,0-3.24-5,10.09,10.09,0,0,0-6-1.46H526v120Z"/><path class="cls-4" d="M44.51,825.58a13.06,13.06,0,0,1-4.51-.71v-3.63a8.62,8.62,0,0,0,1.73.44,12.36,12.36,0,0,0,1.62.11,5.57,5.57,0,0,0,2.94-.66,6,6,0,0,0,1.9-2A34.58,34.58,0,0,0,50,815.64L38.52,789.87h4.67l9.06,21,9.34-21H66.2L55.27,814.76a54.4,54.4,0,0,1-2.8,5.57,12.76,12.76,0,0,1-3.3,3.85A7.56,7.56,0,0,1,44.51,825.58Z"/><path class="cls-4" d="M79.33,816.06q-6.81,0-9.92-3.48t-3.1-10.09q0-6.53,3.13-10t9.89-3.52q6.75,0,9.89,3.52t3.13,10q0,6.6-3.08,10.09T79.33,816.06Zm0-3.84q4.67,0,6.59-2.34c1.28-1.55,1.92-4,1.92-7.39s-.65-5.83-2-7.38-3.49-2.34-6.56-2.34-5.27.78-6.57,2.34-2,4-2,7.38.64,5.84,1.93,7.39S76.21,812.22,79.33,812.22Z"/><path class="cls-4" d="M106.49,816.42q-4.69,0-7.09-2.58T97,806.33V789.87h5v16.65a6.29,6.29,0,0,0,1.63,4.78q1.64,1.53,5.07,1.53a12.17,12.17,0,0,0,4.59-.87,11.3,11.3,0,0,0,3.71-2.42V789.87h4v26h-4.08l-.28-3a16.06,16.06,0,0,1-4.47,2.52A15.8,15.8,0,0,1,106.49,816.42Z"/><path class="cls-4" d="M127,815.87v-26h4.54l.34,3.3a27.31,27.31,0,0,1,4.75-2.31,30.73,30.73,0,0,1,5.37-1.54v3.52q-1.6.33-3.51.9c-1.26.39-2.47.82-3.62,1.29a17.22,17.22,0,0,0-2.87,1.49v19.35Z"/><path class="cls-4" d="M168.32,816.06q-6.81,0-9.91-3.48t-3.11-10.09q0-6.53,3.14-10t9.88-3.52q6.77,0,9.89,3.52t3.13,10q0,6.6-3.07,10.09T168.32,816.06Zm0-3.84c3.12,0,5.31-.78,6.6-2.34s1.92-4,1.92-7.39-.65-5.83-2-7.38-3.49-2.34-6.57-2.34-5.26.78-6.56,2.34-1.95,4-1.95,7.38.64,5.84,1.92,7.39S165.21,812.22,168.32,812.22Z"/><path class="cls-4" d="M189.39,815.87l-6.8-26h4.49l5.11,20.9L198,792.89v-3h3.46l6.41,20.9,5.1-20.9h4.5l-6.8,26h-4.5L200.08,797l-6.19,18.87Z"/><path class="cls-4" d="M222,815.87v-26h4.08l.28,3a16.41,16.41,0,0,1,4.38-2.52,15.68,15.68,0,0,1,5.77-1q5,0,7.23,2.31t2.26,7.24v17h-5V799q0-3.4-1.38-4.75t-5.32-1.34a12,12,0,0,0-4.59.88A11.12,11.12,0,0,0,226,796.2v19.67Z"/><path class="cls-4" d="M263,815.87v-26h4.11l.28,3a18.65,18.65,0,0,1,4.47-2.58,13.73,13.73,0,0,1,5.08-.93,9.39,9.39,0,0,1,4.59.93,5.66,5.66,0,0,1,2.41,2.64,17.05,17.05,0,0,1,4.34-2.55,15.09,15.09,0,0,1,5.83-1q4.5,0,6.7,2.28t2.19,7v17.28h-5V799c0-2.3-.48-3.9-1.43-4.78s-2.49-1.31-4.61-1.31a11.57,11.57,0,0,0-4,.71,8.16,8.16,0,0,0-3.26,2.2A14.3,14.3,0,0,1,285,799v16.87h-4V799.11a8.12,8.12,0,0,0-1.08-4.75c-.73-1-2.15-1.45-4.28-1.45a9.39,9.39,0,0,0-4.15,1,13.92,13.92,0,0,0-3.49,2.39v19.61Z"/><path class="cls-4" d="M319.62,816.06q-6.81,0-9.92-3.48t-3.1-10.09q0-6.53,3.13-10t9.89-3.52q6.75,0,9.89,3.52t3.13,10q0,6.6-3.08,10.09T319.62,816.06Zm0-3.84q4.67,0,6.59-2.34c1.28-1.55,1.92-4,1.92-7.39s-.65-5.83-1.95-7.38-3.49-2.34-6.56-2.34-5.27.78-6.57,2.34-1.95,4-1.95,7.38.64,5.84,1.93,7.39S316.5,812.22,319.62,812.22Z"/><path class="cls-4" d="M344,815.87l-10.2-26h4.66l8.06,21.83,8.07-21.83h4.66l-10.2,26Z"/><path class="cls-4" d="M365,815.87v-23h-3.57l.44-4H370v27Zm0-33v-4h5v4Z"/><path class="cls-4" d="M389.11,816.06q-7,0-10.44-3.35t-3.46-10.33q0-6.25,3-9.86t9.47-3.6a12.81,12.81,0,0,1,6.35,1.41,8.91,8.91,0,0,1,3.73,3.84,12,12,0,0,1,1.24,5.52v5.18H379.72a10,10,0,0,0,1.29,4.38,5.92,5.92,0,0,0,3.24,2.45,18.35,18.35,0,0,0,5.74.74,16.26,16.26,0,0,0,7-1.38v3.52a11,11,0,0,1-3.47,1.1A24.32,24.32,0,0,1,389.11,816.06Zm-9.38-15.19H395v-2.14a6.76,6.76,0,0,0-1.68-4.92q-1.67-1.72-5.52-1.73c-3.11,0-5.24.73-6.37,2.2S379.73,797.94,379.73,800.87Z"/><path class="cls-4" d="M426.14,816.06c-3.66,0-6.54-1-8.63-3s-3.13-5.41-3.13-10.13,1.09-8.19,3.27-10.49a11.48,11.48,0,0,1,8.76-3.47A15.19,15.19,0,0,1,435,791.4V778.87h5v37h-4.47l-.33-3.1a11.7,11.7,0,0,1-4,2.5A14.77,14.77,0,0,1,426.14,816.06Zm1.28-3.62a11.17,11.17,0,0,0,4.17-.77,9.32,9.32,0,0,0,3.41-2.36V795.13a10.39,10.39,0,0,0-3.24-1.89,12.19,12.19,0,0,0-4.23-.69c-2.89,0-5,.83-6.43,2.5s-2.09,4.28-2.09,7.83.64,5.85,1.93,7.33S424.38,812.44,427.42,812.44Z"/><path class="cls-4" d="M448,815.87v-23h-3.4l.44-4h8v27Zm0-33v-4h5v4Z"/><path class="cls-4" d="M467.34,815.4a12.63,12.63,0,0,1-4.7-.85,8,8,0,0,1-3.45-2.54,6.7,6.7,0,0,1-1.3-4.24,7.33,7.33,0,0,1,2.43-5.68c1.62-1.48,4.27-2.22,7.93-2.22H477v-1.59a8.42,8.42,0,0,0-.57-3.41,3.43,3.43,0,0,0-2.16-1.81,14.83,14.83,0,0,0-4.64-.55,26.62,26.62,0,0,0-4.53.38,27,27,0,0,0-4.1,1.05v-3.46a24.92,24.92,0,0,1,4.27-1.05,34,34,0,0,1,5.3-.4q5.71,0,8.57,2.19t2.86,7.1v16.55h-3.91l-.33-2.88a11.28,11.28,0,0,1-4.25,2.56A19.22,19.22,0,0,1,467.34,815.4Zm1.87-2.69a11.94,11.94,0,0,0,5.06-1,11.09,11.09,0,0,0,3.73-2.78v-5h-8.95c-2.06,0-3.52.38-4.4,1.15a4.44,4.44,0,0,0-1.32,3.52,3.44,3.44,0,0,0,1.6,3.27A8.7,8.7,0,0,0,469.21,812.71Z"/><path class="cls-4" d="M488,815.87v-26h4.59l.31,3.3a23.25,23.25,0,0,1,4.26-2.31,25.53,25.53,0,0,1,4.84-1.54v3.52c-1,.22-2,.52-3.16.9s-2.22.82-3.25,1.29a14.8,14.8,0,0,0-2.59,1.49v19.35Z"/><path class="cls-4" d="M508.5,825.58a13,13,0,0,1-4.5-.71v-3.63a8.62,8.62,0,0,0,1.73.44,12.36,12.36,0,0,0,1.62.11,5.57,5.57,0,0,0,2.94-.66,6,6,0,0,0,1.9-2,36.79,36.79,0,0,0,1.81-3.48l-11.48-25.77h4.67l9.06,21,9.34-21h4.61l-10.93,24.89a54.4,54.4,0,0,1-2.8,5.57,12.76,12.76,0,0,1-3.3,3.85A7.57,7.57,0,0,1,508.5,825.58Z"/></svg>