<svg id="Layer_1" data-name="Layer 1" xmlns="http://www.w3.org/2000/svg" xmlns:xlink="http://www.w3.org/1999/xlink" viewBox="0 0 85.13 85.13"><defs><style>.cls-1{fill:none;}.cls-2{fill:#d82e2e;}.cls-3{fill:#f4bd83;}.cls-4{clip-path:url(#clip-path);}.cls-5{fill:#fcecb3;}.cls-6{fill:#a87a31;}.cls-7{clip-path:url(#clip-path-2);}.cls-8{fill:#daaa50;}</style><clipPath id="clip-path" transform="translate(0.03)"><path class="cls-1" d="M66.67,53A13.46,13.46,0,0,1,42.44,59.5,9,9,0,0,1,27.9,49,15.16,15.16,0,1,1,50.46,37.56a3.7,3.7,0,0,1-.13.74,13.18,13.18,0,0,1,4.47-.23A13.45,13.45,0,0,1,66.65,53Z"/></clipPath><clipPath id="clip-path-2" transform="translate(0.03)"><path class="cls-1" d="M41.52,41a11.93,11.93,0,0,1,3.77,3.71,5.82,5.82,0,0,1-.24,5.83,5.39,5.39,0,0,1-5.32,2.3,5,5,0,0,1-4-4.12c-.28-2,.67-3.88.57-5.83s-1.13-3-1.84-4.63c-.46-1-1-1.1.14-1.32C36.58,36.56,40.17,40.06,41.52,41Z"/></clipPath></defs><circle class="cls-2" cx="42.57" cy="42.57" r="42.57"/><path class="cls-3" d="M66.67,53A13.46,13.46,0,0,1,42.44,59.5,9,9,0,0,1,27.9,49,15.16,15.16,0,1,1,50.46,37.56a3.7,3.7,0,0,1-.13.74,13.18,13.18,0,0,1,4.47-.23A13.45,13.45,0,0,1,66.65,53Z" transform="translate(0.03)"/><g class="cls-4"><path class="cls-5" d="M62.22,54.94A13.47,13.47,0,0,1,47.37,66.83h-.09c-3.85-.45-7.57-.88-9.71-3.77-1.88,2.11-4.29,1.69-7.32,1.34a9,9,0,0,1-7.94-10v0h0a8.81,8.81,0,0,1,1.15-3.45A15.16,15.16,0,1,1,46,39.52a3.68,3.68,0,0,1-.11.73A13.47,13.47,0,0,1,62.22,55Z" transform="translate(0.03)"/></g><path class="cls-6" d="M41.52,41a11.93,11.93,0,0,1,3.77,3.71,5.82,5.82,0,0,1-.24,5.83,5.39,5.39,0,0,1-5.32,2.3,5,5,0,0,1-4-4.12c-.28-2,.67-3.88.57-5.83s-1.13-3-1.84-4.63c-.46-1-1-1.1.14-1.32C36.58,36.56,40.17,40.06,41.52,41Z" transform="translate(0.03)"/><g class="cls-7"><path class="cls-8" d="M38.59,37.76a11.83,11.83,0,0,1,3.76,3.69,5.83,5.83,0,0,1-.24,5.86,5.4,5.4,0,0,1-5.32,2.27,5.05,5.05,0,0,1-4-4.12c-.27-2,.67-3.87.57-5.83s-1.13-3-1.85-4.63c-.44-1-.95-1.09.15-1.32C33.64,33.25,37.25,36.76,38.59,37.76Z" transform="translate(0.03)"/></g><path class="cls-1" d="M64.74,52.5A13.46,13.46,0,0,1,40.52,59,9,9,0,0,1,26,48.46,15.15,15.15,0,1,1,48.53,37a3.58,3.58,0,0,1-.11.73,13.18,13.18,0,0,1,4.47-.23,13.47,13.47,0,0,1,11.86,14.9h0Z" transform="translate(0.03)"/></svg>