<svg id="Layer_1" data-name="Layer 1" xmlns="http://www.w3.org/2000/svg" xmlns:xlink="http://www.w3.org/1999/xlink" viewBox="0 0 276.3 85.13"><defs><style>.cls-1{fill:none;}.cls-2{fill:#d82e2e;}.cls-3{fill:#f4bd83;}.cls-4{clip-path:url(#clip-path);}.cls-5{fill:#fcecb3;}.cls-6{fill:#a87a31;}.cls-7{clip-path:url(#clip-path-2);}.cls-8{fill:#daaa50;}</style><clipPath id="clip-path" transform="translate(0.03)"><path class="cls-1" d="M66.67,53A13.46,13.46,0,0,1,42.44,59.5,9,9,0,0,1,27.9,49,15.16,15.16,0,1,1,50.46,37.56a3.7,3.7,0,0,1-.13.74,13.18,13.18,0,0,1,4.47-.23A13.45,13.45,0,0,1,66.65,53Z"/></clipPath><clipPath id="clip-path-2" transform="translate(0.03)"><path class="cls-1" d="M41.52,41a11.93,11.93,0,0,1,3.77,3.71,5.82,5.82,0,0,1-.24,5.83,5.39,5.39,0,0,1-5.32,2.3,5,5,0,0,1-4-4.12c-.28-2,.67-3.88.57-5.83s-1.13-3-1.84-4.63c-.46-1-1-1.1.14-1.32C36.58,36.56,40.17,40.06,41.52,41Z"/></clipPath></defs><circle class="cls-2" cx="42.57" cy="42.57" r="42.57"/><path class="cls-3" d="M66.67,53A13.46,13.46,0,0,1,42.44,59.5,9,9,0,0,1,27.9,49,15.16,15.16,0,1,1,50.46,37.56a3.7,3.7,0,0,1-.13.74,13.18,13.18,0,0,1,4.47-.23A13.45,13.45,0,0,1,66.65,53Z" transform="translate(0.03)"/><g class="cls-4"><path class="cls-5" d="M62.22,54.94A13.47,13.47,0,0,1,47.37,66.83h-.09c-3.85-.45-7.57-.88-9.71-3.77-1.88,2.11-4.29,1.69-7.32,1.34a9,9,0,0,1-7.94-10v0h0a8.81,8.81,0,0,1,1.15-3.45A15.16,15.16,0,1,1,46,39.52a3.68,3.68,0,0,1-.11.73A13.47,13.47,0,0,1,62.22,55Z" transform="translate(0.03)"/></g><path class="cls-6" d="M41.52,41a11.93,11.93,0,0,1,3.77,3.71,5.82,5.82,0,0,1-.24,5.83,5.39,5.39,0,0,1-5.32,2.3,5,5,0,0,1-4-4.12c-.28-2,.67-3.88.57-5.83s-1.13-3-1.84-4.63c-.46-1-1-1.1.14-1.32C36.58,36.56,40.17,40.06,41.52,41Z" transform="translate(0.03)"/><g class="cls-7"><path class="cls-8" d="M38.59,37.76a11.83,11.83,0,0,1,3.76,3.69,5.83,5.83,0,0,1-.24,5.86,5.4,5.4,0,0,1-5.32,2.27,5.05,5.05,0,0,1-4-4.12c-.27-2,.67-3.87.57-5.83s-1.13-3-1.85-4.63c-.44-1-.95-1.09.15-1.32C33.64,33.25,37.25,36.76,38.59,37.76Z" transform="translate(0.03)"/></g><path class="cls-1" d="M64.74,52.5A13.46,13.46,0,0,1,40.52,59,9,9,0,0,1,26,48.46,15.15,15.15,0,1,1,48.53,37a3.58,3.58,0,0,1-.11.73,13.18,13.18,0,0,1,4.47-.23,13.47,13.47,0,0,1,11.86,14.9h0Z" transform="translate(0.03)"/><path class="cls-2" d="M101,67V18.15H111.1a8.17,8.17,0,0,1,3.81.77,5.56,5.56,0,0,1,2.38,2.65,15.58,15.58,0,0,1,1.26,5,70.47,70.47,0,0,1,.36,7.83,71.68,71.68,0,0,1-.36,7.84,18.11,18.11,0,0,1-1.22,5.17,6,6,0,0,1-2.42,2.87,7.64,7.64,0,0,1-3.87.9h-4.39V67Zm9.16-21.49a1.85,1.85,0,0,0,1.32-.51,4.12,4.12,0,0,0,.94-1.78,17.33,17.33,0,0,0,.58-3.42c.13-1.44.19-3.28.19-5.51s-.06-4-.19-5.36a13.79,13.79,0,0,0-.58-3.16,2.82,2.82,0,0,0-1-1.48,2.35,2.35,0,0,0-1.35-.39h-3.42V45.5Z" transform="translate(0.03)"/><path class="cls-2" d="M124.13,63.82a16.25,16.25,0,0,1-.77-2.41,24.3,24.3,0,0,1-.52-3.59q-.2-2.25-.29-5.9c-.06-2.43-.1-5.56-.1-9.39s0-6.94.1-9.35.16-4.37.29-5.87a23,23,0,0,1,.52-3.55,19.5,19.5,0,0,1,.77-2.45,5.68,5.68,0,0,1,2.58-3.13,14.63,14.63,0,0,1,9.94,0,5.68,5.68,0,0,1,2.58,3.13,19.5,19.5,0,0,1,.77,2.45,23,23,0,0,1,.52,3.55c.13,1.5.22,3.46.29,5.87s.1,5.53.1,9.35,0,7-.1,9.39-.16,4.4-.29,5.9a24.3,24.3,0,0,1-.52,3.59,16.25,16.25,0,0,1-.77,2.41A5.68,5.68,0,0,1,136.65,67a14.63,14.63,0,0,1-9.94,0A5.68,5.68,0,0,1,124.13,63.82Zm10.32-4.12q.2-.78.33-1.68c.08-.6.16-1.5.22-2.68s.12-2.78.16-4.81.07-4.73.07-8.12,0-6.12,0-8.17-.07-3.65-.13-4.84-.14-2.06-.23-2.64-.19-1.13-.32-1.65a3.1,3.1,0,0,0-.94-1.64,3.07,3.07,0,0,0-1.9-.48,2.93,2.93,0,0,0-1.87.48,3.1,3.1,0,0,0-.9,1.58q-.19.78-.36,1.68a24.36,24.36,0,0,0-.26,2.67c-.06,1.19-.11,2.8-.13,4.84s0,4.77,0,8.17,0,6.1,0,8.12.07,3.63.13,4.81a24.6,24.6,0,0,0,.26,2.68q.16.9.36,1.68a3,3,0,0,0,.9,1.61,4.11,4.11,0,0,0,3.74,0A3,3,0,0,0,134.45,59.7Z" transform="translate(0.03)"/><path class="cls-2" d="M145.23,67V18.15h10.13a8.13,8.13,0,0,1,3.8.77,5.58,5.58,0,0,1,2.39,2.65,15.84,15.84,0,0,1,1.26,5,70.79,70.79,0,0,1,.35,7.83,72,72,0,0,1-.35,7.84,18.08,18.08,0,0,1-1.23,5.17,6,6,0,0,1-2.42,2.87,7.59,7.59,0,0,1-3.87.9h-4.38V67Zm9.16-21.49a1.85,1.85,0,0,0,1.32-.51,4.12,4.12,0,0,0,.94-1.78,17.33,17.33,0,0,0,.58-3.42c.13-1.44.19-3.28.19-5.51s-.06-4-.19-5.36a13.79,13.79,0,0,0-.58-3.16,2.82,2.82,0,0,0-1-1.48,2.38,2.38,0,0,0-1.35-.39h-3.42V45.5Z" transform="translate(0.03)"/><path class="cls-2" d="M184.84,48.28a17.87,17.87,0,0,1,.13,2.19v2.19a46,46,0,0,1-.42,6.65,14.82,14.82,0,0,1-1.42,4.74,6.71,6.71,0,0,1-2.68,2.84,8.66,8.66,0,0,1-4.25.93A12,12,0,0,1,171,67a5.61,5.61,0,0,1-2.64-3.13,13.15,13.15,0,0,1-.77-2.45,27.27,27.27,0,0,1-.52-3.8c-.13-1.59-.23-3.62-.29-6.07s-.1-5.57-.1-9.35c0-4.35.06-7.8.16-10.36s.25-4.55.42-6a15.82,15.82,0,0,1,.58-3c.22-.6.41-1.12.58-1.55a6,6,0,0,1,2.49-3,10.52,10.52,0,0,1,5-.9,13.8,13.8,0,0,1,3.8.42,5.69,5.69,0,0,1,2.46,1.45,9.27,9.27,0,0,1,2,4.51,38.33,38.33,0,0,1,.71,8c0,.86,0,1.61,0,2.25s-.05,1.34-.09,2.07h-5.42c0-.69.06-1.29.06-1.81V31.82a40.46,40.46,0,0,0-.22-4.77,9.09,9.09,0,0,0-.68-2.71,2.1,2.1,0,0,0-1-1.1,4.11,4.11,0,0,0-1.61-.25,3.06,3.06,0,0,0-1.87.45,3,3,0,0,0-.91,1.61c-.13.52-.24,1.09-.35,1.71a26.06,26.06,0,0,0-.26,2.74c-.06,1.21-.11,2.81-.13,4.81s0,4.59,0,7.77,0,5.87,0,7.94.07,3.72.13,5,.15,2.21.26,2.9.22,1.29.35,1.81a3.1,3.1,0,0,0,.94,1.58,3.49,3.49,0,0,0,2.1.48,2.28,2.28,0,0,0,1.77-.68,4.54,4.54,0,0,0,.94-2,21.46,21.46,0,0,0,.48-3c.11-1.14.16-2.47.16-4v-2c0-.6,0-1.23-.06-1.87Z" transform="translate(0.03)"/><path class="cls-2" d="M190.58,63.82a16.25,16.25,0,0,1-.77-2.41,24.3,24.3,0,0,1-.52-3.59c-.13-1.5-.22-3.47-.29-5.9s-.09-5.56-.09-9.39,0-6.94.09-9.35.16-4.37.29-5.87a23,23,0,0,1,.52-3.55,19.5,19.5,0,0,1,.77-2.45,5.72,5.72,0,0,1,2.58-3.13,14.63,14.63,0,0,1,9.94,0,5.68,5.68,0,0,1,2.58,3.13,19.5,19.5,0,0,1,.77,2.45,23,23,0,0,1,.52,3.55q.19,2.25.29,5.87t.1,9.35q0,5.74-.1,9.39t-.29,5.9a24.3,24.3,0,0,1-.52,3.59,16.25,16.25,0,0,1-.77,2.41A5.68,5.68,0,0,1,203.1,67a14.63,14.63,0,0,1-9.94,0A5.72,5.72,0,0,1,190.58,63.82Zm10.33-4.12c.13-.52.23-1.08.32-1.68s.16-1.5.22-2.68.12-2.78.17-4.81.06-4.73.06-8.12,0-6.12,0-8.17-.07-3.65-.13-4.84-.14-2.06-.23-2.64a15.57,15.57,0,0,0-.32-1.65,3.16,3.16,0,0,0-.93-1.64,3.1,3.1,0,0,0-1.91-.48,2.93,2.93,0,0,0-1.87.48,3.1,3.1,0,0,0-.9,1.58q-.2.78-.36,1.68c-.1.6-.19,1.49-.26,2.67s-.1,2.8-.12,4.84,0,4.77,0,8.17,0,6.1,0,8.12.06,3.63.12,4.81.16,2.08.26,2.68.23,1.16.36,1.68a3,3,0,0,0,.9,1.61,4.11,4.11,0,0,0,3.74,0A3,3,0,0,0,200.91,59.7Z" transform="translate(0.03)"/><path class="cls-2" d="M224.52,67a4.71,4.71,0,0,1-.32-.81A7.6,7.6,0,0,1,224,65c-.06-.52-.13-1.22-.19-2.1s-.14-2-.23-3.52c-.09-1.63-.18-3.28-.29-4.93s-.27-3.3-.48-4.94a5.49,5.49,0,0,0-.87-2.58,2.45,2.45,0,0,0-1.84-.58h-2.71V67h-5.68V18.15H222a8.94,8.94,0,0,1,3.49.54,5.77,5.77,0,0,1,2.13,1.71,9.59,9.59,0,0,1,1,1.71,11.15,11.15,0,0,1,.67,2.23,22.87,22.87,0,0,1,.36,3c.06,1.14.1,2.46.1,4s0,2.85-.07,3.9a25.53,25.53,0,0,1-.23,2.71,16.92,16.92,0,0,1-.35,1.9,11.32,11.32,0,0,1-.45,1.42,4.46,4.46,0,0,1-2.39,2.58v.33a3.56,3.56,0,0,1,1.26,1.19,6.62,6.62,0,0,1,.87,2.87q.45,3.36.74,6.81t.49,7.19c.08,1,.18,1.83.29,2.52a11.21,11.21,0,0,0,.48,2V67Zm-4.58-25.88a4.93,4.93,0,0,0,1.93-.32,2.61,2.61,0,0,0,1.29-1.42,5.42,5.42,0,0,0,.39-1,11.07,11.07,0,0,0,.23-1.39c.06-.58.1-1.31.13-2.19s0-2,0-3.45c0-1.08,0-2,0-2.68s-.06-1.29-.1-1.74a4.05,4.05,0,0,0-.23-1.1,4.24,4.24,0,0,0-.35-.74A2.51,2.51,0,0,0,221,23.82h-3.61V41.11Z" transform="translate(0.03)"/><path class="cls-2" d="M249.81,67q-2.13-7.09-3.68-12.2l-2.61-8.64c-.71-2.37-1.28-4.3-1.71-5.81s-.79-2.73-1.06-3.68-.5-1.68-.65-2.22-.27-1-.35-1.45h-.33c0,1.37.07,2.81.07,4.32V67h-5.23V18.15h6.58c.95,3.61,1.76,6.7,2.45,9.25s1.26,4.71,1.71,6.46.82,3.14,1.1,4.19.49,1.89.65,2.52.25,1.09.32,1.42.12.61.16.87h.32q-.06-1.23-.06-2.52V18.15h5.29V67Z" transform="translate(0.03)"/><path class="cls-2" d="M257.55,67V18.15H267a11.45,11.45,0,0,1,5,.84,5.82,5.82,0,0,1,2.65,3,17,17,0,0,1,.77,2.35,22,22,0,0,1,.52,3.45c.13,1.47.21,3.36.26,5.68s.06,5.34.06,9,0,6.93-.1,9.29-.16,4.27-.29,5.71a24.37,24.37,0,0,1-.48,3.39,13,13,0,0,1-.74,2.26,5.45,5.45,0,0,1-2.58,3,12.06,12.06,0,0,1-5,.81Zm9.36-6a3.41,3.41,0,0,0,1.9-.42,2.71,2.71,0,0,0,.94-1.52c.12-.47.24-1,.35-1.61a21.29,21.29,0,0,0,.23-2.65c0-1.16.07-2.71.09-4.64s0-4.5,0-7.68,0-5.6,0-7.52-.05-3.46-.09-4.64-.11-2.09-.2-2.71a8.73,8.73,0,0,0-.38-1.65,3.31,3.31,0,0,0-1-1.55,3.12,3.12,0,0,0-1.84-.45h-3.68V61Z" transform="translate(0.03)"/></svg>