<svg id="Layer_1" data-name="Layer 1" xmlns="http://www.w3.org/2000/svg" xmlns:xlink="http://www.w3.org/1999/xlink" viewBox="0 0 600.76 185.34"><defs><style>.cls-1,.cls-37,.cls-38{fill:none;}.cls-2{fill:#f4bd83;}.cls-3{clip-path:url(#clip-path);}.cls-4{fill:#fcecb3;}.cls-5{opacity:0.2;}.cls-6{fill:#231f20;}.cls-7{fill:#a87a31;}.cls-8{clip-path:url(#clip-path-2);}.cls-9{fill:#daaa50;}.cls-10{clip-path:url(#clip-path-3);}.cls-11{clip-path:url(#clip-path-4);}.cls-12{clip-path:url(#clip-path-5);}.cls-13{clip-path:url(#clip-path-6);}.cls-14{clip-path:url(#clip-path-7);}.cls-15{clip-path:url(#clip-path-8);}.cls-16{clip-path:url(#clip-path-9);}.cls-17{clip-path:url(#clip-path-10);}.cls-18{clip-path:url(#clip-path-11);}.cls-19{clip-path:url(#clip-path-12);}.cls-20{clip-path:url(#clip-path-13);}.cls-21{clip-path:url(#clip-path-14);}.cls-22{clip-path:url(#clip-path-15);}.cls-23{clip-path:url(#clip-path-16);}.cls-24{clip-path:url(#clip-path-17);}.cls-25{clip-path:url(#clip-path-18);}.cls-26{clip-path:url(#clip-path-19);}.cls-27{clip-path:url(#clip-path-20);}.cls-28{clip-path:url(#clip-path-21);}.cls-29{clip-path:url(#clip-path-22);}.cls-30{fill:#dbdbdb;}.cls-31{clip-path:url(#clip-path-23);}.cls-32{fill:#c9c9c9;stroke:#d82e2e;stroke-width:24.6px;}.cls-32,.cls-38{stroke-miterlimit:10;}.cls-33{opacity:0.25;isolation:isolate;}.cls-34{fill:#b2b2b2;}.cls-35{clip-path:url(#clip-path-24);}.cls-36{fill:#d6d6d6;}.cls-37{stroke:#fff;stroke-linejoin:round;stroke-width:1.85px;}.cls-37,.cls-38{stroke-linecap:round;}.cls-38{stroke:#fc7575;stroke-width:4.92px;}.cls-39{fill:#d82e2e;}</style><clipPath id="clip-path" transform="translate(0.76 -1.32)"><path class="cls-1" d="M76.8,19.59a6.61,6.61,0,0,1-10.58,5.26,8.18,8.18,0,0,1-14.64-7.31,7.58,7.58,0,0,1,.69-1.13A8.61,8.61,0,1,1,67,13.82a6.59,6.59,0,0,1,9.78,5.77Z"/></clipPath><clipPath id="clip-path-2" transform="translate(0.76 -1.32)"><path class="cls-1" d="M62.5,15.47a4.2,4.2,0,0,1,1.74,2.21c.3,1.51-1.31,2.9-2.84,2.8a4.77,4.77,0,0,1-3.6-2.57,17.35,17.35,0,0,1-1-2.28C54.24,9.33,60.21,13.64,62.5,15.47Z"/></clipPath><clipPath id="clip-path-3" transform="translate(0.76 -1.32)"><path class="cls-1" d="M99.23,35.13a6.68,6.68,0,0,0,6.51,6H106a.78.78,0,0,1,.78.76v0h0a8,8,0,1,0,16-.11,8.53,8.53,0,0,0-.27-2,.75.75,0,0,1,.34-.85,9.28,9.28,0,1,0-13.44-11.07.77.77,0,0,1-1,.49h0A6.63,6.63,0,0,0,99.7,32,6.76,6.76,0,0,0,99.23,35.13Z"/></clipPath><clipPath id="clip-path-4" transform="translate(0.76 -1.32)"><path class="cls-1" d="M115.71,30.82c-1,.28-2,0-3,.39A2.9,2.9,0,0,0,111,34a4.29,4.29,0,0,0,1.66,3,8.29,8.29,0,0,0,3.17,1.47,6,6,0,0,0,3.17.13,2.68,2.68,0,0,0,2-2.26c.07-1.63-1.74-2.84-1.85-4.47,0-.81,2.22-3.45.72-3.92C118.82,27.64,116.87,30.48,115.71,30.82Z"/></clipPath><clipPath id="clip-path-5" transform="translate(0.76 -1.32)"><path class="cls-1" d="M51.7,32.93c.36,3.75,4,6.72,8.34,6.77h.27a.93.93,0,0,1,1,.85v0h0c0,5.18,5.08,9.31,11.07,8.88,5.26-.38,9.39-4.31,9.39-8.92a8,8,0,0,0-.35-2.33.8.8,0,0,1,.44-1A10.23,10.23,0,0,0,87.79,28c-.16-5.32-5-9.77-11.12-10.11-5.53-.31-10.35,2.72-12,7a1,1,0,0,1-1.3.54,9.45,9.45,0,0,0-3.25-.55C55.2,24.88,51.26,28.56,51.7,32.93Z"/></clipPath><clipPath id="clip-path-6" transform="translate(0.76 -1.32)"><path class="cls-1" d="M72.79,28.1c-1.23.31-2.64,0-3.85.43a3.24,3.24,0,0,0-2.18,3.17,4.64,4.64,0,0,0,2.12,3.35A11.38,11.38,0,0,0,73,36.7a8.54,8.54,0,0,0,4,.14,3.17,3.17,0,0,0,2.55-2.52c.1-1.85-2.23-3.18-2.33-5,0-.91,2.84-3.87.92-4.4C76.79,24.54,74.29,27.72,72.79,28.1Z"/></clipPath><clipPath id="clip-path-7" transform="translate(0.76 -1.32)"><path class="cls-1" d="M80.78,46.32a7,7,0,0,0,9.36-.4l.16-.17a.82.82,0,0,1,1.15,0v0h0A8.4,8.4,0,0,0,103,33.5a8.77,8.77,0,0,0-1.55-1.15.79.79,0,0,1-.38-.89,9.84,9.84,0,0,0-16.09-9.75A9.74,9.74,0,0,0,82.77,33.4a.8.8,0,0,1-.34,1.09l0,0A6.78,6.78,0,0,0,80.17,36a7,7,0,0,0,.14,9.88Z"/></clipPath><clipPath id="clip-path-8" transform="translate(0.76 -1.32)"><path class="cls-1" d="M88.34,32.08c-.34,1.36-1.23,2.62-1.47,4a3,3,0,0,0,1.51,3.38,4.1,4.1,0,0,0,3.69-.81,14.27,14.27,0,0,0,3.28-3.39,11.66,11.66,0,0,0,2-4c.34-1.43.1-3-.83-3.49-1.42-.8-3.62,1-5.14.38-.75-.3-1.76-4.31-3.07-2.61C87.37,26.75,88.78,30.47,88.34,32.08Z"/></clipPath><clipPath id="clip-path-9" transform="translate(0.76 -1.32)"><path class="cls-1" d="M33.06,46.32a8.93,8.93,0,0,0,10.7-.4l.19-.17a1,1,0,0,1,1.32,0h0a10.61,10.61,0,0,0,14.15-.62,7.72,7.72,0,0,0-.74-11.39,9.85,9.85,0,0,0-2-1.34.78.78,0,0,1-.46-.94,9.09,9.09,0,0,0-3.3-9.6,12.44,12.44,0,0,0-15.09-.15A8.91,8.91,0,0,0,35.33,33.4.77.77,0,0,1,35,34.45a.59.59,0,0,1-.14.06,8.09,8.09,0,0,0-2.56,1.55C29.12,38.93,29.4,43.65,33.06,46.32Z"/></clipPath><clipPath id="clip-path-10" transform="translate(0.76 -1.32)"><path class="cls-1" d="M41.7,32.08c-.39,1.36-1.4,2.62-1.68,4a2.85,2.85,0,0,0,1.72,3.38A5.3,5.3,0,0,0,46,38.63a15.26,15.26,0,0,0,3.69-3.39,11.2,11.2,0,0,0,2.34-4c.39-1.43.12-3-1-3.49-1.63-.8-4.14,1-5.88.38-.86-.3-2-4.31-3.54-2.61C40.59,26.75,42.16,30.47,41.7,32.08Z"/></clipPath><clipPath id="clip-path-11" transform="translate(0.76 -1.32)"><path class="cls-1" d="M7.54,43.63A9.3,9.3,0,0,0,24.25,48.1a6.21,6.21,0,0,0,10.8-4.86,6.08,6.08,0,0,0-.78-2.38A10.46,10.46,0,1,0,18.72,33a3.09,3.09,0,0,0,.07.52,8.82,8.82,0,0,0-3.07-.16A9.3,9.3,0,0,0,7.53,43.62Z"/></clipPath><clipPath id="clip-path-12" transform="translate(0.76 -1.32)"><path class="cls-1" d="M24.87,34.8a8.09,8.09,0,0,0-2.59,2.55,4,4,0,0,0,.16,4A3.72,3.72,0,0,0,26.13,43a3.48,3.48,0,0,0,2.77-2.84c.18-1.34-.47-2.68-.4-4s.76-2.11,1.23-3.22c.31-.69.66-.76-.1-.91C28.29,31.71,25.8,34.12,24.87,34.8Z"/></clipPath><clipPath id="clip-path-13" transform="translate(0.76 -1.32)"><path class="cls-1" d="M32.41,51.11a7.5,7.5,0,0,1-7.32,6.81h-.28a.86.86,0,0,0-.87.86v0h0a9,9,0,0,1-18,.14,8.84,8.84,0,0,1,.34-2.51.87.87,0,0,0-.4-1A10.46,10.46,0,1,1,21,43a.86.86,0,0,0,1.08.56l0,0a7.46,7.46,0,0,1,10.29,6.94C32.44,50.7,32.43,50.9,32.41,51.11Z"/></clipPath><clipPath id="clip-path-14" transform="translate(0.76 -1.32)"><path class="cls-1" d="M13.85,46.25c1.1.31,2.32,0,3.38.44a3.23,3.23,0,0,1,1.92,3.18,4.83,4.83,0,0,1-1.85,3.38,9.42,9.42,0,0,1-3.56,1.68,6.66,6.66,0,0,1-3.57.14,3,3,0,0,1-2.24-2.54c-.09-1.85,2-3.2,2.05-5,0-.92-2.5-3.89-.81-4.42C10.35,42.67,12.55,45.87,13.85,46.25Z"/></clipPath><clipPath id="clip-path-15" transform="translate(0.76 -1.32)"><path class="cls-1" d="M86,48.63c-.41,4.23-4.53,7.56-9.39,7.63h-.31a1,1,0,0,0-1.12,1v0h0c0,5.84-5.73,10.46-12.51,10-5.92-.42-10.57-4.85-10.58-10a8.86,8.86,0,0,1,.43-2.61.92.92,0,0,0-.5-1.08,11.51,11.51,0,0,1-6.67-10.45c.18-6,5.67-11,12.52-11.4,6.26-.35,11.69,3.07,13.53,7.88a1.16,1.16,0,0,0,1.46.62,10.75,10.75,0,0,1,3.69-.62C82,39.55,86.45,43.7,86,48.63Z"/></clipPath><clipPath id="clip-path-16" transform="translate(0.76 -1.32)"><path class="cls-1" d="M62.19,43.18c1.41.36,3,0,4.31.49A3.65,3.65,0,0,1,69,47.24,5.25,5.25,0,0,1,66.57,51,12.84,12.84,0,0,1,62,52.87a9.85,9.85,0,0,1-4.58.16c-1.47-.39-2.8-1.51-2.86-2.86-.12-2.06,2.51-3.58,2.62-5.64.06-1-3.2-4.35-1-5C57.7,39.17,60.53,42.76,62.19,43.18Z"/></clipPath><clipPath id="clip-path-17" transform="translate(0.76 -1.32)"><path class="cls-1" d="M53.2,63.68a7.93,7.93,0,0,1-10.55-.46L42.47,63a.92.92,0,0,0-1.3,0h0A9.45,9.45,0,0,1,27.56,49.9c.13-.14.27-.27.41-.4A9.22,9.22,0,0,1,30,48a.89.89,0,0,0,.44-1A11.12,11.12,0,0,1,48.54,36,11,11,0,0,1,51,49.11a.91.91,0,0,0,.41,1.22h0a7.84,7.84,0,0,1,2.28,12.9C53.54,63.39,53.38,63.54,53.2,63.68Z"/></clipPath><clipPath id="clip-path-18" transform="translate(0.76 -1.32)"><path class="cls-1" d="M44.69,47.67c.38,1.52,1.38,2.95,1.66,4.48A3.34,3.34,0,0,1,44.64,56a4.69,4.69,0,0,1-4.18-.9,16.36,16.36,0,0,1-3.69-3.83,13.25,13.25,0,0,1-2.3-4.48c-.39-1.62-.12-3.36.93-4,1.61-.89,4.08,1.12,5.79.43.86-.33,2-4.85,3.49-2.93C45.79,41.67,44.24,45.85,44.69,47.67Z"/></clipPath><clipPath id="clip-path-19" transform="translate(0.76 -1.32)"><path class="cls-1" d="M107,63.68a10,10,0,0,1-12-.46L94.71,63a1.18,1.18,0,0,0-1.5,0h0a11.94,11.94,0,0,1-15.93-.71,8.71,8.71,0,0,1,.84-12.84,11,11,0,0,1,2.3-1.5.88.88,0,0,0,.5-1,10.27,10.27,0,0,1,3.69-10.82,14.09,14.09,0,0,1,17-.2,10,10,0,0,1,2.78,13.16.85.85,0,0,0,.33,1.16l.16.07a9.11,9.11,0,0,1,2.88,1.73A7.28,7.28,0,0,1,107,63.68Z"/></clipPath><clipPath id="clip-path-20" transform="translate(0.76 -1.32)"><path class="cls-1" d="M97.24,47.67c.44,1.52,1.58,2.95,1.89,4.48A3.2,3.2,0,0,1,97.18,56a6,6,0,0,1-4.77-.9,17.57,17.57,0,0,1-4.2-3.82,12.83,12.83,0,0,1-2.63-4.48c-.44-1.62-.14-3.36,1.07-3.95,1.84-.9,4.66,1.11,6.62.43,1-.34,2.27-4.85,4-2.93C98.49,41.67,96.72,45.85,97.24,47.67Z"/></clipPath><clipPath id="clip-path-21" transform="translate(0.76 -1.32)"><path class="cls-1" d="M135.72,60.69a10.46,10.46,0,0,1-18.82,5,7,7,0,0,1-11.29-8.17,11.77,11.77,0,1,1,17.52-8.87,3.72,3.72,0,0,1-.08.57,10.12,10.12,0,0,1,3.47-.18,10.45,10.45,0,0,1,9.21,11.57Z"/></clipPath><clipPath id="clip-path-22" transform="translate(0.76 -1.32)"><path class="cls-1" d="M116.2,50.73a9.31,9.31,0,0,1,2.92,2.87,4.5,4.5,0,0,1-.19,4.54,4.19,4.19,0,0,1-4.13,1.78,3.92,3.92,0,0,1-3.11-3.2c-.21-1.51.52-3,.45-4.53s-.88-2.36-1.44-3.6c-.35-.77-.75-.85.11-1C112.35,47.25,115.15,50,116.2,50.73Z"/></clipPath><clipPath id="clip-path-23" transform="translate(0.76 -1.32)"><path class="cls-1" d="M110.21,172.52H31.4c-6.63,0-12.25-5.77-13.24-13.58L5.8,60.85h130l-12.36,98.09C122.45,166.75,116.82,172.52,110.21,172.52Z"/></clipPath><clipPath id="clip-path-24" transform="translate(0.76 -1.32)"><rect class="cls-1" x="2.18" y="57" width="137.52" height="5.6" rx="2.56"/></clipPath></defs><g id="Layer_1-2" data-name="Layer 1"><path class="cls-2" d="M76.8,19.59a6.61,6.61,0,0,1-10.58,5.26,8.18,8.18,0,0,1-14.64-7.31,7.58,7.58,0,0,1,.69-1.13A8.61,8.61,0,1,1,67,13.82a6.59,6.59,0,0,1,9.78,5.77Z" transform="translate(0.76 -1.32)"/><g class="cls-3"><path class="cls-4" d="M76.08,18A6.6,6.6,0,0,1,65.5,23.28,8.18,8.18,0,0,1,50,19.59c0-1.78-.66-2.77.31-4.11-1.23-1.49-.72-4-.72-6.12a8.61,8.61,0,0,1,17.19,0,24.43,24.43,0,0,1-.62,4.89c1-.53,2.16-2.84,3.32-2.84A6.58,6.58,0,0,1,76.08,18Z" transform="translate(0.76 -1.32)"/><g class="cls-5"><path class="cls-6" d="M54,21.5c.86.58,1.53,1.42,2.43,1.94a8.27,8.27,0,0,0,3.56.84,7.26,7.26,0,0,0,4.09-.46c1.23-.67,2-2.16,3-3.29a8.23,8.23,0,0,1,5.53-2.78,4,4,0,0,1,3.48,1.18,3.54,3.54,0,0,1-.46,4.31,9.91,9.91,0,0,1-4,2.4c-5.36,2.17-11,4.27-16.77,3.8-1.84-.14-3.91-.72-4.85-2.33-.73-1.28-1.27-4.17-.43-5.54S53,20.48,54,21.5Z" transform="translate(0.76 -1.32)"/></g></g><path class="cls-7" d="M62.5,15.47a4.2,4.2,0,0,1,1.74,2.21c.3,1.51-1.31,2.9-2.84,2.8a4.77,4.77,0,0,1-3.6-2.57,17.35,17.35,0,0,1-1-2.28C54.24,9.33,60.21,13.64,62.5,15.47Z" transform="translate(0.76 -1.32)"/><g class="cls-8"><path class="cls-9" d="M61.71,14.68a4.16,4.16,0,0,1,1.74,2.21c.29,1.51-1.31,2.9-2.85,2.81A4.71,4.71,0,0,1,57,17.11a16.08,16.08,0,0,1-1-2.27C53.45,8.54,59.41,12.84,61.71,14.68Z" transform="translate(0.76 -1.32)"/></g><path class="cls-2" d="M99.23,35.13a6.68,6.68,0,0,0,6.51,6H106a.78.78,0,0,1,.78.76v0h0a8,8,0,1,0,16-.11,8.53,8.53,0,0,0-.27-2,.75.75,0,0,1,.34-.85,9.28,9.28,0,1,0-13.44-11.07.77.77,0,0,1-1,.49h0A6.63,6.63,0,0,0,99.7,32,6.76,6.76,0,0,0,99.23,35.13Z" transform="translate(0.76 -1.32)"/><g class="cls-10"><path class="cls-4" d="M100.46,33.89a6.68,6.68,0,0,0,6.51,6h.26a.76.76,0,0,1,.77.75v0h0a8,8,0,1,0,16,0h0c0-.72,1.57-1.42,1.38-2.08a.75.75,0,0,1,.31-.84c2.84-1.65,3.08-4.76,3-8.29a9.36,9.36,0,0,0-8.66-9c-4.34-.27-9.32,1.6-10.63,5.43-.15.42-.62,1.47-1,1.3-.79-.32-.4-.49-1.3-.49a6.63,6.63,0,0,0-6.61,6.65C100.44,33.54,100.45,33.72,100.46,33.89Z" transform="translate(0.76 -1.32)"/><path class="cls-2" d="M104.66,33.15a10.55,10.55,0,0,1,2.21,5.29c.2,1.92-.61,4.09-2.46,4.79a4.75,4.75,0,0,1-4-.5,8.26,8.26,0,0,1-4.07-8.1A8,8,0,0,1,100,28.91a1.38,1.38,0,0,1,1.07-.3c.72.22.7,1.33,1.4,2.51S103.72,32.22,104.66,33.15Z" transform="translate(0.76 -1.32)"/></g><path class="cls-7" d="M115.71,30.82c-1,.28-2,0-3,.39A2.9,2.9,0,0,0,111,34a4.29,4.29,0,0,0,1.66,3,8.29,8.29,0,0,0,3.17,1.47,6,6,0,0,0,3.17.13,2.68,2.68,0,0,0,2-2.26c.07-1.63-1.74-2.84-1.85-4.47,0-.81,2.22-3.45.72-3.92C118.82,27.64,116.87,30.48,115.71,30.82Z" transform="translate(0.76 -1.32)"/><g class="cls-11"><path class="cls-9" d="M116.12,30c-1,.28-2.05,0-3,.4a2.87,2.87,0,0,0-1.71,2.82,4.25,4.25,0,0,0,1.66,3,8.2,8.2,0,0,0,3.17,1.5,5.89,5.89,0,0,0,3.17.13,2.68,2.68,0,0,0,2-2.26c.07-1.63-1.75-2.84-1.85-4.46,0-.82,2.22-3.46.72-3.93C119.23,26.81,117.28,29.66,116.12,30Z" transform="translate(0.76 -1.32)"/></g><path class="cls-2" d="M51.7,32.93c.36,3.75,4,6.72,8.34,6.77h.27a.93.93,0,0,1,1,.85v0h0c0,5.18,5.08,9.31,11.07,8.88,5.26-.38,9.39-4.31,9.39-8.92a8,8,0,0,0-.35-2.33.8.8,0,0,1,.44-1A10.23,10.23,0,0,0,87.79,28c-.16-5.32-5-9.77-11.12-10.11-5.53-.31-10.35,2.72-12,7a1,1,0,0,1-1.3.54,9.45,9.45,0,0,0-3.25-.55C55.2,24.88,51.26,28.56,51.7,32.93Z" transform="translate(0.76 -1.32)"/><g class="cls-12"><path class="cls-4" d="M53.29,31.55c.36,3.76,4,6.72,8.33,6.77h.29a.92.92,0,0,1,1,.87h0C62.9,44.38,68,48.5,74,48.07c5.27-.37,9.39-4.3,9.39-8.91,0-.81,2-1.6,1.78-2.33a.81.81,0,0,1,.44-1c3.63-1.84,3.92-5.32,3.8-9.28-.15-5.33-5-9.77-11.11-10.11-5.54-.31-12,1.79-13.63,6.07-.18.47-.77,1.65-1.29,1.46-1-.35-.51-.55-1.66-.54C56.79,23.49,52.86,27.17,53.29,31.55Z" transform="translate(0.76 -1.32)"/><path class="cls-2" d="M83,22.33c.74-.83,2.36-2.35,3-1.95s-.45,2.42-1,5.83-.14,4.13-.4,11.56A7.13,7.13,0,0,1,83.42,42c-1.35,1.68-4.89,1.44-5.91-.09-.83-1.23,0-3.18.57-4.36,1-2.13,1.88-2.16,2.46-3.83.62-1.89-.37-2.34-.2-5.06A11.09,11.09,0,0,1,83,22.33Zm-21.8,12c-2.11-2.3-2.8-2-3.33-3.34-.46-1.16,0-1.54-.51-3.12-.15-.5-.87-2.86-1.92-3-1.74-.24-5.47,5-4.45,10,.83,4.15,4.53,6.58,7.17,7.38a4.61,4.61,0,0,0,3.48-.11A4.12,4.12,0,0,0,63.39,39v-.07C63.52,37.37,62.58,35.86,61.16,34.28Z" transform="translate(0.76 -1.32)"/></g><path class="cls-7" d="M72.79,28.1c-1.23.31-2.64,0-3.85.43a3.24,3.24,0,0,0-2.18,3.17,4.64,4.64,0,0,0,2.12,3.35A11.38,11.38,0,0,0,73,36.7a8.54,8.54,0,0,0,4,.14,3.17,3.17,0,0,0,2.55-2.52c.1-1.85-2.23-3.18-2.33-5,0-.91,2.84-3.87.92-4.4C76.79,24.54,74.29,27.72,72.79,28.1Z" transform="translate(0.76 -1.32)"/><g class="cls-13"><path class="cls-9" d="M73.33,27.17c-1.23.31-2.63,0-3.84.44a3.21,3.21,0,0,0-2.18,3.16,4.67,4.67,0,0,0,2.12,3.36,11.07,11.07,0,0,0,4.06,1.64,8.46,8.46,0,0,0,4.06.14,3.18,3.18,0,0,0,2.55-2.52c.1-1.85-2.23-3.18-2.33-5,0-.91,2.84-3.86.92-4.39C77.32,23.61,74.82,26.79,73.33,27.17Z" transform="translate(0.76 -1.32)"/></g><path class="cls-2" d="M80.78,46.32a7,7,0,0,0,9.36-.4l.16-.17a.82.82,0,0,1,1.15,0v0h0A8.4,8.4,0,0,0,103,33.5a8.77,8.77,0,0,0-1.55-1.15.79.79,0,0,1-.38-.89,9.84,9.84,0,0,0-16.09-9.75A9.74,9.74,0,0,0,82.77,33.4a.8.8,0,0,1-.34,1.09l0,0A6.78,6.78,0,0,0,80.17,36a7,7,0,0,0,.14,9.88Z" transform="translate(0.76 -1.32)"/><g class="cls-14"><path class="cls-4" d="M80.78,44.47a7,7,0,0,0,9.36-.41l.16-.16a.82.82,0,0,1,1.15,0v0h0a8.4,8.4,0,0,0,12.33-11.41c-.2-.21-.42-.42-.64-.62-.55-.53.07-2.22-.57-2.58a.79.79,0,0,1-.38-.89c.83-3.35-1.36-5.81-4.1-8.36a9.85,9.85,0,0,0-13.21-.18c-3.4,3.08-5.63,8.18-3.69,12,.21.42.68,1.55.25,1.73-.82.35-.67-.07-1.33.61a7,7,0,0,0,.24,9.9Z" transform="translate(0.76 -1.32)"/></g><path class="cls-7" d="M88.34,32.08c-.34,1.36-1.23,2.62-1.47,4a3,3,0,0,0,1.51,3.38,4.1,4.1,0,0,0,3.69-.81,14.27,14.27,0,0,0,3.28-3.39,11.66,11.66,0,0,0,2-4c.34-1.43.1-3-.83-3.49-1.42-.8-3.62,1-5.14.38-.75-.3-1.76-4.31-3.07-2.61C87.37,26.75,88.78,30.47,88.34,32.08Z" transform="translate(0.76 -1.32)"/><g class="cls-15"><path class="cls-9" d="M89.53,30.94c-.34,1.36-1.23,2.62-1.47,4a3,3,0,0,0,1.51,3.38,4.22,4.22,0,0,0,3.69-.8,14.42,14.42,0,0,0,3.26-3.4,11.71,11.71,0,0,0,2-4c.35-1.44.11-3-.83-3.51-1.42-.8-3.61,1-5.13.39-.76-.31-1.77-4.31-3.08-2.61C88.56,25.59,89.93,29.3,89.53,30.94Z" transform="translate(0.76 -1.32)"/></g><path class="cls-2" d="M33.06,46.32a8.93,8.93,0,0,0,10.7-.4l.19-.17a1,1,0,0,1,1.32,0h0a10.61,10.61,0,0,0,14.15-.62,7.72,7.72,0,0,0-.74-11.39,9.85,9.85,0,0,0-2-1.34.78.78,0,0,1-.46-.94,9.09,9.09,0,0,0-3.3-9.6,12.44,12.44,0,0,0-15.09-.15A8.91,8.91,0,0,0,35.33,33.4.77.77,0,0,1,35,34.45a.59.59,0,0,1-.14.06,8.09,8.09,0,0,0-2.56,1.55C29.12,38.93,29.4,43.65,33.06,46.32Z" transform="translate(0.76 -1.32)"/><g class="cls-16"><path class="cls-4" d="M33,44.47a8.92,8.92,0,0,0,10.7-.41l.19-.16a1,1,0,0,1,1.32,0h0a10.61,10.61,0,0,0,14.15-.62,7.71,7.71,0,0,0-.75-11.39c-.62-.54.08-2.23-.62-2.59a.77.77,0,0,1-.44-.89c1-3.34-1.55-5.81-4.68-8.36a12.53,12.53,0,0,0-15.11-.18c-3.88,3.08-6.45,8.18-4.23,12,.24.42.77,1.55.29,1.73-.94.35-.77-.07-1.52.62C29.12,37.09,29.36,41.79,33,44.47Z" transform="translate(0.76 -1.32)"/><path class="cls-2" d="M40.29,34a24.91,24.91,0,0,1-2.46,6.84c-.35.75-.85,1.61-1.68,1.68-1.13.1-1.76-1.26-2-2.37a37.06,37.06,0,0,1-.31-13.28c.18-1.14.55-3.08,1.9-3.43s2.34,1.41,2.91,2.38A12.51,12.51,0,0,1,40.29,34Z" transform="translate(0.76 -1.32)"/></g><path class="cls-7" d="M41.7,32.08c-.39,1.36-1.4,2.62-1.68,4a2.85,2.85,0,0,0,1.72,3.38A5.3,5.3,0,0,0,46,38.63a15.26,15.26,0,0,0,3.69-3.39,11.2,11.2,0,0,0,2.34-4c.39-1.43.12-3-1-3.49-1.63-.8-4.14,1-5.88.38-.86-.3-2-4.31-3.54-2.61C40.59,26.75,42.16,30.47,41.7,32.08Z" transform="translate(0.76 -1.32)"/><g class="cls-17"><path class="cls-9" d="M43.06,30.94c-.39,1.36-1.4,2.62-1.68,4a2.85,2.85,0,0,0,1.73,3.38,5.48,5.48,0,0,0,4.24-.8A15.7,15.7,0,0,0,51,34.1a11.22,11.22,0,0,0,2.33-4c.4-1.44.13-3-.94-3.51-1.63-.8-4.14,1-5.88.39-.86-.31-2-4.31-3.54-2.61C42,25.59,43.52,29.3,43.06,30.94Z" transform="translate(0.76 -1.32)"/></g><path class="cls-2" d="M7.54,43.63A9.3,9.3,0,0,0,24.25,48.1a6.21,6.21,0,0,0,10.8-4.86,6.08,6.08,0,0,0-.78-2.38A10.46,10.46,0,1,0,18.72,33a3.09,3.09,0,0,0,.07.52,8.82,8.82,0,0,0-3.07-.16A9.3,9.3,0,0,0,7.53,43.62Z" transform="translate(0.76 -1.32)"/><g class="cls-18"><path class="cls-4" d="M9.26,44.41a9.3,9.3,0,0,0,10.31,8.17c2.65-.31,5.22-.62,6.69-2.6,1.3,1.45,3,1.17,5,.92A6.2,6.2,0,0,0,36.78,44,6.4,6.4,0,0,0,36,41.63a10.45,10.45,0,1,0-15.56-7.87,3.05,3.05,0,0,0,.08.5A9.3,9.3,0,0,0,9.42,41.32,9.18,9.18,0,0,0,9.26,44.41Z" transform="translate(0.76 -1.32)"/></g><path class="cls-7" d="M24.87,34.8a8.09,8.09,0,0,0-2.59,2.55,4,4,0,0,0,.16,4A3.72,3.72,0,0,0,26.13,43a3.48,3.48,0,0,0,2.77-2.84c.18-1.34-.47-2.68-.4-4s.76-2.11,1.23-3.22c.31-.69.66-.76-.1-.91C28.29,31.71,25.8,34.12,24.87,34.8Z" transform="translate(0.76 -1.32)"/><g class="cls-19"><path class="cls-9" d="M25.82,33.6a8.09,8.09,0,0,0-2.59,2.55,4,4,0,0,0,.16,4,3.67,3.67,0,0,0,3.69,1.59,3.46,3.46,0,0,0,2.74-2.82c.19-1.34-.46-2.66-.4-4s.79-2.1,1.28-3.19c.31-.69.66-.76-.1-.91C29.23,30.51,26.75,32.93,25.82,33.6Z" transform="translate(0.76 -1.32)"/></g><g class="cls-5"><path class="cls-6" d="M13.63,48.68,69.74,52,121.45,43a6.16,6.16,0,0,0-1.92-5.77c-2.85-1.51-4.88-1.48-6.19-1.18-2.65.61-4.18,2.68-6.6,2.2a4.56,4.56,0,0,1-2-1A22.9,22.9,0,0,0,92,33a10.13,10.13,0,0,0-10.23,7.26,8,8,0,0,1-4.53.38,7.73,7.73,0,0,1-2.82-1.23,17.26,17.26,0,0,0-12.79-7.83,16.65,16.65,0,0,0-11.88,4.31,7.57,7.57,0,0,0-3.12-2.07,8,8,0,0,0-5.39.13,12.36,12.36,0,0,0-8.74,4.7,11.19,11.19,0,0,0-2,5,5.64,5.64,0,0,1-3.23,1A5.56,5.56,0,0,1,24.81,44a9.66,9.66,0,0,0-7.42-7,10.2,10.2,0,0,0-8.61,2.71Z" transform="translate(0.76 -1.32)"/></g><path class="cls-2" d="M32.41,51.11a7.5,7.5,0,0,1-7.32,6.81h-.28a.86.86,0,0,0-.87.86v0h0a9,9,0,0,1-18,.14,8.84,8.84,0,0,1,.34-2.51.87.87,0,0,0-.4-1A10.46,10.46,0,1,1,21,43a.86.86,0,0,0,1.08.56l0,0a7.46,7.46,0,0,1,10.29,6.94C32.44,50.7,32.43,50.9,32.41,51.11Z" transform="translate(0.76 -1.32)"/><g class="cls-20"><path class="cls-4" d="M31,49.71a7.52,7.52,0,0,1-7.33,6.82h-.25a.85.85,0,0,0-.87.84v0h0a9,9,0,0,1-18,0c0-.82-1.76-1.6-1.55-2.35a.87.87,0,0,0-.4-1C-.59,52.23-.84,48.73-.74,44.75A10.52,10.52,0,0,1,9,34.57c4.92-.31,10.5,1.8,12,6.11.16.47.67,1.66,1.13,1.47.88-.36.45-.56,1.46-.55a7.46,7.46,0,0,1,7.44,7.49C31.05,49.29,31,49.5,31,49.71Z" transform="translate(0.76 -1.32)"/><path class="cls-2" d="M26.31,48.87a11.79,11.79,0,0,0-2.46,6c-.24,2.16.72,4.61,2.74,5.41a5.45,5.45,0,0,0,4.5-.57,9.31,9.31,0,0,0,4.61-9.13,9.14,9.14,0,0,0-4.12-6.45,1.64,1.64,0,0,0-1.23-.33c-.81.24-.79,1.5-1.57,2.82S27.37,47.83,26.31,48.87Z" transform="translate(0.76 -1.32)"/></g><path class="cls-7" d="M13.85,46.25c1.1.31,2.32,0,3.38.44a3.23,3.23,0,0,1,1.92,3.18,4.83,4.83,0,0,1-1.85,3.38,9.42,9.42,0,0,1-3.56,1.68,6.66,6.66,0,0,1-3.57.14,3,3,0,0,1-2.24-2.54c-.09-1.85,2-3.2,2.05-5,0-.92-2.5-3.89-.81-4.42C10.35,42.67,12.55,45.87,13.85,46.25Z" transform="translate(0.76 -1.32)"/><g class="cls-21"><path class="cls-9" d="M13.39,45.31c1.1.32,2.31,0,3.38.45a3.25,3.25,0,0,1,1.89,3.18,4.76,4.76,0,0,1-1.84,3.38A9.3,9.3,0,0,1,13.24,54a6.62,6.62,0,0,1-3.56.14,3,3,0,0,1-2.25-2.54c-.09-1.85,2-3.2,2.05-5,0-.92-2.5-3.89-.81-4.43C9.88,41.73,12.09,44.94,13.39,45.31Z" transform="translate(0.76 -1.32)"/></g><path class="cls-2" d="M86,48.63c-.41,4.23-4.53,7.56-9.39,7.63h-.31a1,1,0,0,0-1.12,1v0h0c0,5.84-5.73,10.46-12.51,10-5.92-.42-10.57-4.85-10.58-10a8.86,8.86,0,0,1,.43-2.61.92.92,0,0,0-.5-1.08,11.51,11.51,0,0,1-6.67-10.45c.18-6,5.67-11,12.52-11.4,6.26-.35,11.69,3.07,13.53,7.88a1.16,1.16,0,0,0,1.46.62,10.75,10.75,0,0,1,3.69-.62C82,39.55,86.45,43.7,86,48.63Z" transform="translate(0.76 -1.32)"/><g class="cls-22"><path class="cls-4" d="M84.18,47.06c-.41,4.23-4.53,7.57-9.39,7.63h-.31a1.06,1.06,0,0,0-1.13,1h0c0,5.83-5.72,10.48-12.5,10-5.92-.42-10.57-4.84-10.58-10,0-.92-2.25-1.8-2-2.63a.91.91,0,0,0-.5-1.08c-4.09-2.08-4.41-6-4.31-10.46.18-6,5.67-11,12.52-11.39,6.27-.35,13.46,2,15.38,6.84.21.53.87,1.85,1.46,1.65,1.13-.4.58-.61,1.84-.61C80.25,38,84.66,42.13,84.18,47.06Z" transform="translate(0.76 -1.32)"/><path class="cls-2" d="M53.72,43.86c.19,3.07-.95,3.56-.23,5.7.61,1.88,1.66,1.92,2.74,4.3.62,1.33,1.59,3.5.66,4.92-1.16,1.74-5.14,2-6.67.11-1.06-1.31-1.16-3.13-1.23-4.81-.3-8.37.18-9.31-.46-13s-1.91-6.12-1.17-6.57,2.55,1.28,3.38,2.2A12.56,12.56,0,0,1,53.72,43.86Zm19.07,11.5v.07a4.58,4.58,0,0,0,2,3.55,5.38,5.38,0,0,0,3.93.12c3-.88,7.13-3.61,8.07-8.29,1.15-5.72-3.07-11.57-5-11.3-1.19.17-2,2.82-2.17,3.39-.55,1.77-.06,2.22-.57,3.51-.61,1.54-1.38,1.18-3.75,3.77-1.58,1.73-2.64,3.45-2.51,5.15Z" transform="translate(0.76 -1.32)"/></g><path class="cls-7" d="M62.19,43.18c1.41.36,3,0,4.31.49A3.65,3.65,0,0,1,69,47.24,5.25,5.25,0,0,1,66.57,51,12.84,12.84,0,0,1,62,52.87a9.85,9.85,0,0,1-4.58.16c-1.47-.39-2.8-1.51-2.86-2.86-.12-2.06,2.51-3.58,2.62-5.64.06-1-3.2-4.35-1-5C57.7,39.17,60.53,42.76,62.19,43.18Z" transform="translate(0.76 -1.32)"/><g class="cls-23"><path class="cls-9" d="M61.6,42.13c1.4.36,3,0,4.3.5a3.63,3.63,0,0,1,2.46,3.57A5.25,5.25,0,0,1,66,50a12.87,12.87,0,0,1-4.58,1.84,9.68,9.68,0,0,1-4.57.16c-1.48-.39-2.8-1.5-2.87-2.85-.11-2.06,2.51-3.58,2.63-5.64,0-1-3.21-4.36-1-4.92C57.11,38.12,59.93,41.71,61.6,42.13Z" transform="translate(0.76 -1.32)"/></g><path class="cls-2" d="M53.2,63.68a7.93,7.93,0,0,1-10.55-.46L42.47,63a.92.92,0,0,0-1.3,0h0A9.45,9.45,0,0,1,27.56,49.9c.13-.14.27-.27.41-.4A9.22,9.22,0,0,1,30,48a.89.89,0,0,0,.44-1A11.12,11.12,0,0,1,48.54,36,11,11,0,0,1,51,49.11a.91.91,0,0,0,.41,1.22h0a7.84,7.84,0,0,1,2.28,12.9C53.54,63.39,53.38,63.54,53.2,63.68Z" transform="translate(0.76 -1.32)"/><g class="cls-24"><path class="cls-4" d="M53.23,61.59a7.92,7.92,0,0,1-10.54-.45L42.51,61a.91.91,0,0,0-1.29,0l0,0h0A9.45,9.45,0,1,1,27.61,47.81c.13-.13.26-.27.4-.39.62-.62-.08-2.51.62-2.91a.91.91,0,0,0,.43-1c-.93-3.77,1.53-6.55,4.62-9.42a11.07,11.07,0,0,1,14.88-.19c3.82,3.43,6.35,9.22,4.17,13.53-.24.46-.76,1.73-.28,1.94.92.39.75-.08,1.49.68a7.87,7.87,0,0,1-.25,11.14C53.54,61.32,53.39,61.46,53.23,61.59Z" transform="translate(0.76 -1.32)"/></g><path class="cls-7" d="M44.69,47.67c.38,1.52,1.38,2.95,1.66,4.48A3.34,3.34,0,0,1,44.64,56a4.69,4.69,0,0,1-4.18-.9,16.36,16.36,0,0,1-3.69-3.83,13.25,13.25,0,0,1-2.3-4.48c-.39-1.62-.12-3.36.93-4,1.61-.89,4.08,1.12,5.79.43.86-.33,2-4.85,3.49-2.93C45.79,41.67,44.24,45.85,44.69,47.67Z" transform="translate(0.76 -1.32)"/><g class="cls-25"><path class="cls-9" d="M43.35,46.35c.38,1.53,1.38,3,1.66,4.49a3.33,3.33,0,0,1-1.71,3.81,4.66,4.66,0,0,1-4.18-.91,16,16,0,0,1-3.69-3.83,13.38,13.38,0,0,1-2.3-4.47c-.39-1.62-.12-3.36.93-3.95,1.61-.9,4.08,1.12,5.79.43.85-.33,2-4.85,3.49-2.93C44.44,40.36,42.89,44.54,43.35,46.35Z" transform="translate(0.76 -1.32)"/></g><path class="cls-2" d="M107,63.68a10,10,0,0,1-12-.46L94.71,63a1.18,1.18,0,0,0-1.5,0h0a11.94,11.94,0,0,1-15.93-.71,8.71,8.71,0,0,1,.84-12.84,11,11,0,0,1,2.3-1.5.88.88,0,0,0,.5-1,10.27,10.27,0,0,1,3.69-10.82,14.09,14.09,0,0,1,17-.2,10,10,0,0,1,2.78,13.16.85.85,0,0,0,.33,1.16l.16.07a9.11,9.11,0,0,1,2.88,1.73A7.28,7.28,0,0,1,107,63.68Z" transform="translate(0.76 -1.32)"/><g class="cls-26"><path class="cls-4" d="M107,61.59a10.06,10.06,0,0,1-12.08-.45L94.72,61a1.15,1.15,0,0,0-1.5,0h0a11.94,11.94,0,0,1-15.93-.71,8.7,8.7,0,0,1,.84-12.84c.71-.62-.09-2.51.73-2.91a.88.88,0,0,0,.5-1c-1.06-3.77,1.75-6.55,5.28-9.42a14.07,14.07,0,0,1,17-.19c4.38,3.43,7.26,9.22,4.76,13.53-.27.47-.87,1.73-.32,1.94,1.05.39.86-.08,1.71.68C111.44,53.28,111.13,58.62,107,61.59Z" transform="translate(0.76 -1.32)"/><path class="cls-2" d="M98.82,49.8a27.88,27.88,0,0,0,2.78,7.7c.41.85,1,1.81,1.9,1.9,1.27.11,2-1.42,2.24-2.68a41.56,41.56,0,0,0,.35-15c-.2-1.28-.61-3.48-2.15-3.86s-2.63,1.59-3.27,2.68A14.17,14.17,0,0,0,98.82,49.8Z" transform="translate(0.76 -1.32)"/></g><path class="cls-7" d="M97.24,47.67c.44,1.52,1.58,2.95,1.89,4.48A3.2,3.2,0,0,1,97.18,56a6,6,0,0,1-4.77-.9,17.57,17.57,0,0,1-4.2-3.82,12.83,12.83,0,0,1-2.63-4.48c-.44-1.62-.14-3.36,1.07-3.95,1.84-.9,4.66,1.11,6.62.43,1-.34,2.27-4.85,4-2.93C98.49,41.67,96.72,45.85,97.24,47.67Z" transform="translate(0.76 -1.32)"/><g class="cls-27"><path class="cls-9" d="M95.71,46.35c.44,1.53,1.58,3,1.89,4.49a3.22,3.22,0,0,1-1.95,3.81,5.94,5.94,0,0,1-4.78-.91,17.36,17.36,0,0,1-4.19-3.83,12.55,12.55,0,0,1-2.63-4.47c-.45-1.62-.14-3.36,1.07-3.95,1.84-.9,4.66,1.12,6.62.43,1-.33,2.26-4.85,4-2.93C97,40.36,95.19,44.54,95.71,46.35Z" transform="translate(0.76 -1.32)"/></g><path class="cls-2" d="M135.72,60.69a10.46,10.46,0,0,1-18.82,5,7,7,0,0,1-11.29-8.17,11.77,11.77,0,1,1,17.52-8.87,3.72,3.72,0,0,1-.08.57,10.12,10.12,0,0,1,3.47-.18,10.45,10.45,0,0,1,9.21,11.57Z" transform="translate(0.76 -1.32)"/><g class="cls-28"><path class="cls-4" d="M133.79,61.57a10.45,10.45,0,0,1-11.55,9.23h-.07c-3-.35-5.88-.68-7.54-2.92-1.47,1.63-3.34,1.31-5.69,1a7,7,0,0,1-6.15-7.77h0a6.84,6.84,0,0,1,.88-2.68,11.77,11.77,0,1,1,17.53-8.87,2.93,2.93,0,0,1-.09.57A10.46,10.46,0,0,1,133.79,61.6Z" transform="translate(0.76 -1.32)"/></g><path class="cls-7" d="M116.2,50.73a9.31,9.31,0,0,1,2.92,2.87,4.5,4.5,0,0,1-.19,4.54,4.19,4.19,0,0,1-4.13,1.78,3.92,3.92,0,0,1-3.11-3.2c-.21-1.51.52-3,.45-4.53s-.88-2.36-1.44-3.6c-.35-.77-.75-.85.11-1C112.35,47.25,115.15,50,116.2,50.73Z" transform="translate(0.76 -1.32)"/><g class="cls-29"><path class="cls-9" d="M115.13,49.39a9.41,9.41,0,0,1,2.92,2.87,4.5,4.5,0,0,1-.19,4.54,4.19,4.19,0,0,1-4.13,1.79,3.94,3.94,0,0,1-3.08-3.21c-.2-1.51.52-3,.45-4.53s-.88-2.36-1.44-3.59c-.35-.78-.74-.85.11-1C111.28,45.9,114.09,48.62,115.13,49.39Z" transform="translate(0.76 -1.32)"/></g><path class="cls-30" d="M110.21,172.52H31.4c-6.63,0-12.25-5.77-13.24-13.58L5.8,60.85h130l-12.36,98.09C122.45,166.75,116.82,172.52,110.21,172.52Z" transform="translate(0.76 -1.32)"/><g class="cls-31"><path class="cls-32" d="M14.15,59.8,29.53,181.73M128,59.8,112.66,181.73M70.8,60.85V179.28" transform="translate(0.76 -1.32)"/><path class="cls-33" d="M12.42,167.36h96.19a8.31,8.31,0,0,0,4.36-1.05c3-1.76,4.3-4.89,5.18-9.66l10.69-93.31h31V186.65H27.89Z" transform="translate(0.76 -1.32)"/></g><rect class="cls-34" x="2.94" y="55.68" width="137.52" height="5.6" rx="2.56"/><g class="cls-35"><rect class="cls-36" x="1.1" y="53.84" width="137.52" height="5.6" rx="2.56"/></g><line class="cls-37" x1="20.5" y1="57.52" x2="45.72" y2="57.52"/><line class="cls-37" x1="7.17" y1="57.52" x2="16.87" y2="57.52"/><line class="cls-38" x1="17.48" y1="95.31" x2="22.35" y2="132.66"/><line class="cls-38" x1="14.49" y1="72.34" x2="16.08" y2="84.55"/></g><path class="cls-39" d="M200.66,54q0,10.46-6.17,16.15T177,75.85h-4.74v20.7H155.39V34.17H177q11.82,0,17.75,5.16T200.66,54Zm-28.42,8.1h3.07a8.4,8.4,0,0,0,6-2.13,7.76,7.76,0,0,0,2.24-5.89q0-6.31-7-6.31h-4.35Z" transform="translate(0.76 -1.32)"/><path class="cls-39" d="M262.41,65.27q0,15.75-7.72,23.94T232.08,97.4q-14.69,0-22.51-8.24t-7.83-24q0-15.58,7.79-23.79t22.63-8.22q14.9,0,22.57,8.15T262.41,65.27Zm-42.92,0q0,18.09,12.59,18.09,6.39,0,9.49-4.39t3.1-13.7q0-9.34-3.14-13.8T232.16,47Q219.5,47,219.49,65.27Z" transform="translate(0.76 -1.32)"/><path class="cls-39" d="M312.4,54q0,10.46-6.17,16.15t-17.51,5.69H284v20.7H267.13V34.17h21.59q11.8,0,17.75,5.16T312.4,54ZM284,62.11h3.07a8.4,8.4,0,0,0,6-2.13,7.76,7.76,0,0,0,2.24-5.89q0-6.31-7-6.31H284Z" transform="translate(0.76 -1.32)"/><path class="cls-39" d="M343.56,47.09A10.77,10.77,0,0,0,334.17,52Q330.81,57,330.8,65.61q0,18,13.7,18a28.33,28.33,0,0,0,8-1.15,81.28,81.28,0,0,0,7.81-2.78V93.94a43.16,43.16,0,0,1-17.67,3.46q-14.12,0-21.65-8.19t-7.53-23.68a37.82,37.82,0,0,1,3.65-17,26.1,26.1,0,0,1,10.49-11.28,31.74,31.74,0,0,1,16.11-3.95,44.54,44.54,0,0,1,19.33,4.39L357.9,50.93A58.37,58.37,0,0,0,351,48.2,24.12,24.12,0,0,0,343.56,47.09Z" transform="translate(0.76 -1.32)"/><path class="cls-39" d="M422.56,65.27q0,15.75-7.73,23.94T392.22,97.4q-14.67,0-22.51-8.24t-7.83-24q0-15.58,7.79-23.79t22.64-8.22q14.88,0,22.57,8.15T422.56,65.27Zm-42.93,0q0,18.09,12.59,18.09,6.4,0,9.49-4.39t3.1-13.7q0-9.34-3.14-13.8T392.31,47Q379.64,47,379.63,65.27Z" transform="translate(0.76 -1.32)"/><path class="cls-39" d="M444.12,73.85v22.7H427.27V34.17h20.44q25.43,0,25.43,18.43,0,10.83-10.59,16.77l18.18,27.18H461.62l-13.23-22.7Zm0-12.68h3.16q8.84,0,8.83-7.8,0-6.45-8.66-6.45h-3.33Z" transform="translate(0.76 -1.32)"/><path class="cls-39" d="M542.3,96.55H520.2L497.42,52.6H497q.81,10.36.81,15.83V96.55H482.91V34.17h22l22.7,43.35h.25q-.6-9.43-.6-15.15V34.17h15Z" transform="translate(0.76 -1.32)"/><path class="cls-39" d="M600,64q0,15.61-8.6,24.07t-24.17,8.45H547.05V34.17h21.59q15,0,23.19,7.68T600,64Zm-17.49.6q0-8.58-3.4-12.71t-10.3-4.14H563.9V82.72h3.76q7.68,0,11.26-4.46T582.51,64.63Z" transform="translate(0.76 -1.32)"/><path class="cls-9" d="M171.88,128.63l9.42-18.15h7.08l-13.26,24.36v15.43h-6.53V135.06l-13.2-24.58h7.07Z" transform="translate(0.76 -1.32)"/><path class="cls-9" d="M212.4,135.16q0,7.38-3.78,11.52t-10.53,4.13a14.42,14.42,0,0,1-7.46-1.9,12.55,12.55,0,0,1-5-5.47,18.68,18.68,0,0,1-1.74-8.28q0-7.32,3.75-11.43t10.59-4.11q6.52,0,10.34,4.21T212.4,135.16Zm-21.91,0q0,10.43,7.71,10.43t7.62-10.43q0-10.31-7.68-10.31-4,0-5.84,2.67C191.1,129.29,190.49,131.84,190.49,135.16Z" transform="translate(0.76 -1.32)"/><path class="cls-9" d="M236.8,150.27l-.89-4h-.33a9.11,9.11,0,0,1-3.8,3.3,12.65,12.65,0,0,1-5.62,1.19c-3.65,0-6.37-.9-8.16-2.72s-2.7-4.56-2.7-8.24V120.17h6.45v18.56a8,8,0,0,0,1.42,5.18,5.37,5.37,0,0,0,4.43,1.73q4,0,5.92-2.41c1.26-1.6,1.9-4.29,1.9-8.07v-15h6.42v30.1Z" transform="translate(0.76 -1.32)"/><path class="cls-9" d="M262.05,119.62a15.49,15.49,0,0,1,3.18.27l-.63,6a11.92,11.92,0,0,0-2.83-.33,8.2,8.2,0,0,0-6.22,2.5,9.09,9.09,0,0,0-2.38,6.51v15.73h-6.39v-30.1h5l.85,5.3H253a11.94,11.94,0,0,1,3.91-4.27A9.31,9.31,0,0,1,262.05,119.62Z" transform="translate(0.76 -1.32)"/><path class="cls-9" d="M294.81,150.27,283.27,117h-.22q.46,7.39.47,13.88v19.35h-5.91V110.48h9.17l11.05,31.65H298l11.37-31.65h9.2v39.79h-6.26V130.59c0-2,.05-4.55.15-7.73s.19-5.1.26-5.77h-.22l-11.94,33.18Z" transform="translate(0.76 -1.32)"/><path class="cls-9" d="M350.89,135.16q0,7.38-3.78,11.52t-10.53,4.13a14.42,14.42,0,0,1-7.46-1.9,12.55,12.55,0,0,1-5-5.47,18.68,18.68,0,0,1-1.74-8.28q0-7.32,3.75-11.43t10.59-4.11q6.52,0,10.34,4.21T350.89,135.16Zm-21.91,0q0,10.43,7.71,10.43t7.62-10.43q0-10.31-7.68-10.31-4,0-5.84,2.67C329.59,129.29,329,131.84,329,135.16Z" transform="translate(0.76 -1.32)"/><path class="cls-9" d="M360.92,150.27l-11.43-30.1h6.75l6.12,17.5a34.31,34.31,0,0,1,1.91,7.13h.22a48.07,48.07,0,0,1,1.9-7.13l6.13-17.5h6.8l-11.48,30.1Z" transform="translate(0.76 -1.32)"/><path class="cls-9" d="M380.17,112.19a3.54,3.54,0,0,1,.94-2.64,3.63,3.63,0,0,1,2.68-.92,3.22,3.22,0,0,1,3.56,3.56,3.48,3.48,0,0,1-.93,2.57,3.56,3.56,0,0,1-2.63.94,3.6,3.6,0,0,1-2.68-.94A3.44,3.44,0,0,1,380.17,112.19ZM387,150.27h-6.4v-30.1H387Z" transform="translate(0.76 -1.32)"/><path class="cls-9" d="M405.06,150.81q-7,0-11-4.09t-4-11.28q0-7.38,3.68-11.6t10.1-4.22q6,0,9.41,3.62t3.46,10v3.46H396.7a9.89,9.89,0,0,0,2.37,6.74,8.24,8.24,0,0,0,6.29,2.35,23.48,23.48,0,0,0,5-.5,26.25,26.25,0,0,0,4.94-1.68v5.2a19.35,19.35,0,0,1-4.73,1.58A29,29,0,0,1,405.06,150.81Zm-1.17-26.34A6.42,6.42,0,0,0,399,126.4a9.27,9.27,0,0,0-2.19,5.63h13.66a8.3,8.3,0,0,0-1.79-5.64A6.14,6.14,0,0,0,403.89,124.47Z" transform="translate(0.76 -1.32)"/><path class="cls-9" d="M463.19,130q0,9.85-5.47,15.07T442,150.27H430.83V110.48h12.3q9.51,0,14.78,5.11T463.19,130Zm-6.86.22q0-14.3-13.36-14.29h-5.64V144.8H442Q456.33,144.8,456.33,130.21Z" transform="translate(0.76 -1.32)"/><path class="cls-9" d="M466.5,112.19a3.54,3.54,0,0,1,.94-2.64,3.63,3.63,0,0,1,2.68-.92,3.24,3.24,0,0,1,3.56,3.56,3.44,3.44,0,0,1-.94,2.57,3.52,3.52,0,0,1-2.62.94,3.6,3.6,0,0,1-2.68-.94A3.44,3.44,0,0,1,466.5,112.19Zm6.77,38.08h-6.39v-30.1h6.39Z" transform="translate(0.76 -1.32)"/><path class="cls-9" d="M497.07,150.27l-1.28-4.19h-.21a12.33,12.33,0,0,1-4.39,3.74,13.84,13.84,0,0,1-5.66,1,9.56,9.56,0,0,1-6.92-2.39,9,9,0,0,1-2.49-6.78,8,8,0,0,1,3.45-7q3.46-2.37,10.54-2.59l5.19-.16v-1.61A6.07,6.07,0,0,0,494,126a5.51,5.51,0,0,0-4.18-1.43,14.61,14.61,0,0,0-4.44.68,34.6,34.6,0,0,0-4.08,1.61l-2.07-4.57a21.74,21.74,0,0,1,5.36-1.95,24.47,24.47,0,0,1,5.5-.67q5.74,0,8.67,2.51t2.93,7.86v20.28Zm-9.52-4.35a7.92,7.92,0,0,0,5.59-1.95,7.05,7.05,0,0,0,2.11-5.46V135.9l-3.86.16q-4.53.16-6.58,1.51a4.6,4.6,0,0,0-2.05,4.13,4,4,0,0,0,1.19,3.11A5.14,5.14,0,0,0,487.55,145.92Z" transform="translate(0.76 -1.32)"/><path class="cls-9" d="M521.66,119.62a15.6,15.6,0,0,1,3.19.27l-.63,6a12,12,0,0,0-2.83-.33,8.19,8.19,0,0,0-6.22,2.5,9,9,0,0,0-2.38,6.51v15.73h-6.4v-30.1h5l.85,5.3h.32a11.94,11.94,0,0,1,3.91-4.27A9.28,9.28,0,0,1,521.66,119.62Z" transform="translate(0.76 -1.32)"/><path class="cls-9" d="M523.9,120.17h7L537,137.23a32.8,32.8,0,0,1,1.85,6.86h.22a28.48,28.48,0,0,1,.89-3.63q.66-2.15,6.92-20.29h6.91l-12.87,34.1q-3.51,9.39-11.71,9.39a18.44,18.44,0,0,1-4.14-.46v-5.06a15.58,15.58,0,0,0,3.3.32c3.08,0,5.25-1.78,6.5-5.36l1.12-2.83Z" transform="translate(0.76 -1.32)"/></svg>